<svg xmlns="http://www.w3.org/2000/svg" xmlns:xlink="http://www.w3.org/1999/xlink">
  <defs xmlns="http://www.w3.org/2000/svg">
    <linearGradient id="Gradient1" xmlns="http://www.w3.org/2000/svg" x1="0%" x2="0%" y1="0%" y2="100%" gradientUnits="userSpaceOnUse">
      <stop offset="35%" stop-color="#e6e6e6" stop-opacity="0.7" xmlns="http://www.w3.org/2000/svg"/>
      <stop offset="90%" stop-color="#FFFFFF" stop-opacity="0.7" xmlns="http://www.w3.org/2000/svg"/>
    </linearGradient>
    <linearGradient id="Gradient2" xmlns="http://www.w3.org/2000/svg" x1="0%" x2="0%" y1="0%" y2="100%" gradientUnits="userSpaceOnUse">
      <stop offset="35%" stop-color="#FFFFFF" stop-opacity="0.7" xmlns="http://www.w3.org/2000/svg"/>
      <stop offset="90%" stop-color="#e6e6e6" stop-opacity="0.7" xmlns="http://www.w3.org/2000/svg"/>
    </linearGradient>
    <rect id="backgroundGradient" fill="url(#Gradient1)" height="100%" width="100%" x="0"  y="0" xmlns="http://www.w3.org/2000/svg"/>
    <g id="Medicals" xmlns="http://www.w3.org/2000/svg">
      <path class="cls-1" d="M184.84,1056.69,154,1069.92a8.08,8.08,0,0,0,6.37,14.86l30.89-13.23a8.08,8.08,0,1,0-6.37-14.86Zm-9.79,19.8L160,1082.94a6.26,6.26,0,0,1-4.93-11.51l15.05-6.45Z"/>
      <path class="cls-1" d="M154.82,1075.41a1.7,1.7,0,0,0,2.24.89l8.22-3.52a1.7,1.7,0,0,0-1.34-3.13l-8.22,3.52A1.7,1.7,0,0,0,154.82,1075.41Z"/>
      <path class="cls-1" d="M129.5,1045.42l-21.56-25.77A8.08,8.08,0,0,0,95.54,1030l21.56,25.77a8.08,8.08,0,1,0,12.4-10.37Zm-21.78-3.68-10.51-12.56a6.26,6.26,0,0,1,9.61-8l10.51,12.56Z"/>
      <path class="cls-1" d="M102.93,1022.06a1.7,1.7,0,0,0-.21,2.4l5.74,6.86a1.7,1.7,0,0,0,2.61-2.19l-5.74-6.86A1.7,1.7,0,0,0,102.93,1022.06Z"/>
      <path class="cls-1" d="M30.58,1008.1a15.44,15.44,0,1,0,20.3,8A15.44,15.44,0,0,0,30.58,1008.1Zm12.85,24.71a2,2,0,1,1-3.63,1.57L30,1011.74a2,2,0,0,1,3.63-1.57Z"/>
      <path class="cls-1" d="M176.2,1135.93a15.44,15.44,0,1,0-14.29,16.51A15.44,15.44,0,0,0,176.2,1135.93Zm-27.57,4a2,2,0,0,1-.28-3.95l24.62-1.77a2,2,0,0,1,.28,3.95Z"/>
      <path class="cls-1" d="M1571.19,727.13l-27,13.31a4.24,4.24,0,0,0-1.93,5.68l20.59,41.76a4.24,4.24,0,0,0,5.68,1.93l27-13.31a4.24,4.24,0,0,0,1.93-5.68l-20.59-41.76A4.24,4.24,0,0,0,1571.19,727.13Zm.6,55a4.37,4.37,0,1,1,2-5.85A4.37,4.37,0,0,1,1571.78,782.15Zm-5.23-10.62a4.37,4.37,0,1,1,2-5.85A4.37,4.37,0,0,1,1566.55,771.53Zm-5.23-10.62a4.37,4.37,0,1,1,2-5.85A4.37,4.37,0,0,1,1561.32,760.91Zm-5.23-10.62a4.37,4.37,0,1,1,2-5.85A4.37,4.37,0,0,1,1556.09,750.3Zm24.45,28.58-1,.5L1559.13,738l1-.5Zm6.9-4.45a4.37,4.37,0,1,1,2-5.85A4.37,4.37,0,0,1,1587.45,774.43Zm-5.23-10.62a4.37,4.37,0,1,1,2-5.85A4.37,4.37,0,0,1,1582.21,763.81ZM1577,753.2a4.37,4.37,0,1,1,2-5.85A4.37,4.37,0,0,1,1577,753.2Zm-5.23-10.62a4.37,4.37,0,1,1,2-5.85A4.37,4.37,0,0,1,1571.75,742.58Z"/>
      <path class="cls-1" d="M1722.63,1120.87l-13.31-27a4.24,4.24,0,0,0-5.68-1.93l-41.76,20.59a4.24,4.24,0,0,0-1.93,5.68l13.31,27a4.24,4.24,0,0,0,5.68,1.93l41.76-20.59A4.24,4.24,0,0,0,1722.63,1120.87Zm-55,.6a4.37,4.37,0,1,1,5.85,2A4.37,4.37,0,0,1,1667.62,1121.47Zm10.62-5.23a4.37,4.37,0,1,1,5.85,2A4.37,4.37,0,0,1,1678.23,1116.24Zm10.62-5.23a4.37,4.37,0,1,1,5.85,2A4.37,4.37,0,0,1,1688.85,1111Zm10.62-5.23a4.37,4.37,0,1,1,5.85,2A4.37,4.37,0,0,1,1699.47,1105.77Zm-28.58,24.45-.5-1,41.37-20.39.5,1Zm4.45,6.9a4.37,4.37,0,1,1,5.85,2A4.37,4.37,0,0,1,1675.34,1137.13Zm10.62-5.23a4.37,4.37,0,1,1,5.85,2A4.37,4.37,0,0,1,1686,1131.9Zm10.62-5.23a4.37,4.37,0,1,1,5.85,2A4.37,4.37,0,0,1,1696.57,1126.67Zm10.62-5.23a4.37,4.37,0,1,1,5.85,2A4.37,4.37,0,0,1,1707.18,1121.43Z"/>
      <path class="cls-1" d="M1073.72,440.47l-66.58-17.09a2.37,2.37,0,0,0-2.39.85L1001.6,428a2.41,2.41,0,0,1-2.06.91,2.23,2.23,0,0,0-1,.14l.81-2.24c.22-.61-.31-1.36-1.19-1.68l-3.46-1.25c-.88-.32-1.77-.08-2,.53l-4.27,11.81c-.22.61.31,1.36,1.19,1.68l3.46,1.25c.88.32,1.77.08,2-.53l.81-2.24a2.23,2.23,0,0,0,.67.74,2.41,2.41,0,0,1,1,2v4.92a2.37,2.37,0,0,0,1.29,2.18L1061,475.74l.19.08,3.74,1.36a2.46,2.46,0,0,0,3.06-1.62l5.51-15.23,5.51-15.23a2.46,2.46,0,0,0-1.31-3.21l-3.74-1.36Zm-72.6,4.2,6.74-18.62a.55.55,0,1,1,1,.37L1002.14,445a.55.55,0,1,1-1-.37Zm38.21-6.06c9.62,3.48,16.08,10,14.43,14.58s-10.79,5.45-20.42,2-16.08-10-14.43-14.58S1029.7,435.13,1039.33,438.61Zm34.44,5.74-10.29,28.44a.78.78,0,1,1-1.47-.53l10.29-28.44a.78.78,0,1,1,1.47.53Z"/>
      <path class="cls-1" d="M1504.48,1187.79a9.25,9.25,0,0,0,.32-13.08h0a9.25,9.25,0,0,0-13.08-.32l-47.55,45.31m1.75,2.07,47.28-45.05a6.52,6.52,0,0,1,9.22.22h0a6.52,6.52,0,0,1-.22,9.22m-6.17-.64a1.85,1.85,0,0,0,.26-2.42,1.8,1.8,0,0,0-2.7-.23"/>
      <path class="cls-1" d="M126,1218.2h16.71a1.21,1.21,0,1,0,0-2.41H126a1.21,1.21,0,1,0,0,2.41Z"/>
      <path class="cls-1" d="M126,1208.53h16.71a1.21,1.21,0,1,0,0-2.41H126a1.21,1.21,0,1,0,0,2.41Z"/>
      <path class="cls-1" d="M126,1198.87h16.71a1.21,1.21,0,1,0,0-2.41H126a1.21,1.21,0,1,0,0,2.41Z"/>
      <path class="cls-1" d="M126,1189.2h16.71a1.21,1.21,0,1,0,0-2.41H126a1.21,1.21,0,1,0,0,2.41Z"/>
      <path class="cls-1" d="M150.43,1183c0-4.48-3.94-8.11-8.8-8.11H107.5c-4.86,0-8.8,3.63-8.8,8.11m3.85,1.92a5.68,5.68,0,0,1,5.89-5.43h32.24a5.68,5.68,0,0,1,5.89,5.43"/>
      <path class="cls-1" d="M848.63,1003.09a1.26,1.26,0,0,0-1.31-1.21H830.61a1.21,1.21,0,1,0,0,2.41h16.71A1.26,1.26,0,0,0,848.63,1003.09Z"/>
      <path class="cls-1" d="M830.61,994.63h16.71a1.21,1.21,0,1,0,0-2.41H830.61a1.21,1.21,0,1,0,0,2.41Z"/>
      <path class="cls-1" d="M830.61,985h16.71a1.21,1.21,0,1,0,0-2.41H830.61a1.21,1.21,0,1,0,0,2.41Z"/>
      <path class="cls-1" d="M830.61,975.29h16.71a1.21,1.21,0,1,0,0-2.41H830.61a1.21,1.21,0,1,0,0,2.41Z"/>
      <path class="cls-1" d="M830.61,965.63h16.71a1.21,1.21,0,1,0,0-2.41H830.61a1.21,1.21,0,1,0,0,2.41Z"/>
      <path class="cls-1" d="M871.86,1059.44c-22,0-39.94-16.3-40.3-36.53a.58.58,0,0,0,0-.1h2.35a1.82,1.82,0,0,0,1.41-.65l5.19-6.42a1.82,1.82,0,0,1,1.41-.65h4.28c4.86,0,8.8-3.63,8.8-8.11V959.42c0-4.48-3.94-8.11-8.8-8.11H812.08c-4.86,0-8.8,3.63-8.8,8.11V1007c0,4.48,3.94,8.11,8.8,8.11h5.34a1.82,1.82,0,0,1,1.41.65l5.19,6.42a1.82,1.82,0,0,0,1.41.65h3a.57.57,0,0,0,0,.11c.37,21.83,19.68,39.43,43.46,39.43h0a.65.65,0,0,0,.67-.62v-1.67A.66.66,0,0,0,871.86,1059.44Zm-46.36-40.56-4.13-5.64a4.56,4.56,0,0,0-3.69-1.81H813a5.68,5.68,0,0,1-5.89-5.43V961.33A5.68,5.68,0,0,1,813,955.9h32.24a5.68,5.68,0,0,1,5.89,5.43V1006a5.68,5.68,0,0,1-5.89,5.43h-3.8a4.29,4.29,0,0,0-3.54,1.79l-3.88,5.62a1.2,1.2,0,0,1-1,.5h-6.58A1.2,1.2,0,0,1,825.5,1018.87Z"/>
      <path class="cls-1" d="M1412.66,1001.9a1.26,1.26,0,0,0-1.31-1.21h-16.71a1.21,1.21,0,1,0,0,2.41h16.71A1.26,1.26,0,0,0,1412.66,1001.9Z"/>
      <path class="cls-1" d="M1394.64,993.44h16.71a1.21,1.21,0,1,0,0-2.41h-16.71a1.21,1.21,0,1,0,0,2.41Z"/>
      <path class="cls-1" d="M1394.64,983.77h16.71a1.21,1.21,0,1,0,0-2.41h-16.71a1.21,1.21,0,1,0,0,2.41Z"/>
      <path class="cls-1" d="M1394.64,974.1h16.71a1.21,1.21,0,1,0,0-2.41h-16.71a1.21,1.21,0,1,0,0,2.41Z"/>
      <path class="cls-1" d="M1394.64,964.44h16.71a1.21,1.21,0,1,0,0-2.41h-16.71a1.21,1.21,0,1,0,0,2.41Z"/>
      <path class="cls-1" d="M1435.9,1058.25c-22,0-39.94-16.3-40.3-36.53a.58.58,0,0,0,0-.1h2.35a1.82,1.82,0,0,0,1.41-.65l5.19-6.42a1.82,1.82,0,0,1,1.41-.65h4.28c4.86,0,8.8-3.63,8.8-8.11V958.23c0-4.48-3.94-8.11-8.8-8.11h-34.13c-4.86,0-8.8,3.63-8.8,8.11v47.56c0,4.48,3.94,8.11,8.8,8.11h5.34a1.82,1.82,0,0,1,1.41.65l5.19,6.42a1.82,1.82,0,0,0,1.41.65h3a.57.57,0,0,0,0,.11c.37,21.83,19.68,39.43,43.46,39.43h0a.65.65,0,0,0,.67-.62v-1.67A.66.66,0,0,0,1435.9,1058.25Zm-46.36-40.56-4.13-5.64a4.56,4.56,0,0,0-3.69-1.81h-4.66a5.68,5.68,0,0,1-5.89-5.43V960.15a5.68,5.68,0,0,1,5.89-5.43h32.24a5.68,5.68,0,0,1,5.89,5.43v44.66a5.68,5.68,0,0,1-5.89,5.43h-3.8A4.29,4.29,0,0,0,1402,1012l-3.88,5.62a1.2,1.2,0,0,1-1,.5h-6.58A1.2,1.2,0,0,1,1389.54,1017.68Z"/>
      <path class="cls-1" d="M1359.1,285.27a1.26,1.26,0,0,0-1.31-1.21h-16.71a1.21,1.21,0,1,0,0,2.41h16.71A1.26,1.26,0,0,0,1359.1,285.27Z"/>
      <path class="cls-1" d="M1341.08,276.81h16.71a1.21,1.21,0,1,0,0-2.41h-16.71a1.21,1.21,0,1,0,0,2.41Z"/>
      <path class="cls-1" d="M1341.08,267.15h16.71a1.21,1.21,0,1,0,0-2.41h-16.71a1.21,1.21,0,1,0,0,2.41Z"/>
      <path class="cls-1" d="M1341.08,257.48h16.71a1.21,1.21,0,1,0,0-2.41h-16.71a1.21,1.21,0,1,0,0,2.41Z"/>
      <path class="cls-1" d="M1341.08,247.81h16.71a1.21,1.21,0,1,0,0-2.41h-16.71a1.21,1.21,0,1,0,0,2.41Z"/>
      <path class="cls-1" d="M1382.34,341.62c-22,0-39.94-16.3-40.3-36.53a.58.58,0,0,0,0-.1h2.35a1.82,1.82,0,0,0,1.41-.65l5.19-6.42a1.82,1.82,0,0,1,1.41-.65h4.28c4.86,0,8.8-3.63,8.8-8.11V241.6c0-4.48-3.94-8.11-8.8-8.11h-34.13c-4.86,0-8.8,3.63-8.8,8.11v47.56c0,4.48,3.94,8.11,8.8,8.11h5.34a1.82,1.82,0,0,1,1.41.65l5.19,6.42a1.82,1.82,0,0,0,1.41.65h3a.57.57,0,0,0,0,.11c.37,21.83,19.68,39.43,43.46,39.43h0a.65.65,0,0,0,.67-.62v-1.67A.66.66,0,0,0,1382.34,341.62ZM1336,301.06l-4.13-5.64a4.56,4.56,0,0,0-3.69-1.81h-4.66a5.68,5.68,0,0,1-5.89-5.43V243.52a5.68,5.68,0,0,1,5.89-5.43h32.24a5.68,5.68,0,0,1,5.89,5.43v44.66a5.68,5.68,0,0,1-5.89,5.43h-3.8a4.29,4.29,0,0,0-3.54,1.79l-3.88,5.62a1.2,1.2,0,0,1-1,.5H1337A1.2,1.2,0,0,1,1336,301.06Z"/>
      <path class="cls-1" d="M1556.59,1092.2l24.24,53a18.21,18.21,0,0,0,24.14,9h0a18.21,18.21,0,0,0,9-24.14l-24.24-53a18.21,18.21,0,0,0-24.14-9h0A18.21,18.21,0,0,0,1556.59,1092.2Zm50.14,29.06,4.33,9.47a15.3,15.3,0,0,1-27.83,12.73l-4.33-9.47Zm-5.52-5a2.82,2.82,0,1,1-3.74-1.39A2.82,2.82,0,0,1,1601.22,1116.3Zm-8.66,4a2.82,2.82,0,1,1-3.74-1.39A2.82,2.82,0,0,1,1592.56,1120.26Zm-8.66,4a2.82,2.82,0,1,1-3.74-1.39A2.82,2.82,0,0,1,1583.9,1124.22Zm12.61-18.23a2.82,2.82,0,1,1-3.74-1.39A2.82,2.82,0,0,1,1596.51,1106Zm-8.66,4a2.82,2.82,0,1,1-3.74-1.39A2.82,2.82,0,0,1,1587.85,1110Zm-8.66,4a2.82,2.82,0,1,1-3.74-1.39A2.82,2.82,0,0,1,1579.19,1113.92Zm12.61-18.23a2.82,2.82,0,1,1-3.74-1.39A2.82,2.82,0,0,1,1591.79,1095.69Zm-8.66,4a2.82,2.82,0,1,1-3.74-1.39A2.82,2.82,0,0,1,1583.13,1099.65Zm-8.66,4a2.82,2.82,0,1,1-3.74-1.39A2.82,2.82,0,0,1,1574.47,1103.61Zm12.84-24.82,4.33,9.47L1563.82,1101l-4.33-9.47a15.3,15.3,0,0,1,27.83-12.73Z"/>
      <path class="cls-1" d="M47.41,651.67,6.49,669.2a10.71,10.71,0,0,0,8.43,19.69l40.92-17.53a10.71,10.71,0,1,0-8.43-19.69Zm-13,26.23L14.5,686.45A8.3,8.3,0,0,1,8,671.19l19.94-8.54Z"/>
      <path class="cls-1" d="M7.64,676.47a2.26,2.26,0,0,0,3,1.19L21.49,673a2.26,2.26,0,1,0-1.78-4.15L8.83,673.51A2.26,2.26,0,0,0,7.64,676.47Z"/>
      <path class="cls-1" d="M200.3,909.76l-60.6,26a15.86,15.86,0,0,0,12.49,29.16l60.6-26a15.86,15.86,0,1,0-12.49-29.16Zm-19.22,38.86-29.53,12.65a12.29,12.29,0,0,1-9.68-22.59L171.41,926Z"/>
      <path class="cls-1" d="M141.4,946.5a3.34,3.34,0,0,0,4.39,1.76l16.12-6.91a3.34,3.34,0,1,0-2.63-6.14l-16.12,6.91A3.34,3.34,0,0,0,141.4,946.5Z"/>
      <path class="cls-1" d="M126.38,859.3a24.26,24.26,0,1,0,24.26,24.26A24.26,24.26,0,0,0,126.38,859.3Zm3.11,43.64a3.11,3.11,0,1,1-6.22,0V864.17a3.11,3.11,0,1,1,6.22,0Z"/>
      <path class="cls-1" d="M143.07,547.45a21.2,21.2,0,0,1-7.78-1.12A12.8,12.8,0,0,1,132,544a1.36,1.36,0,0,0,.09-1.19,1.39,1.39,0,0,0-1.82-.75l-.1,0a7.41,7.41,0,0,1-1.11-1.68l-.07-.18,2.29-.95a1.33,1.33,0,0,0,.55-1.78l-4.61-11.13a1.33,1.33,0,0,0-1.65-.87l-20.17,8.36a1.33,1.33,0,0,0-.55,1.78l4.61,11.13a1.33,1.33,0,0,0,1.65.87l2.29-.95.07.18a7.41,7.41,0,0,1,.41,2l-.1,0a1.39,1.39,0,0,0-.75,1.82,1.36,1.36,0,0,0,.91.78,12.8,12.8,0,0,1-.68,3.92,21.2,21.2,0,0,1-4.7,6.3c-3.2,2.61-5.63,6-4,9.77l15.9,38.37c1.58,3.82,6.11,6,9.77,4,4.17-2.17,12-7.6,16.3-9.4s13.69-3.47,18.18-4.88c3.94-1.24,5.63-6,4-9.77l-15.9-38.37C151.26,547.68,147.18,547,143.07,547.45ZM108,538.51l-1.2-2.91a.61.61,0,0,1,.25-.81l18.07-7.49a.61.61,0,0,1,.75.4l1.2,2.91a.61.61,0,0,1-.25.81l-18.07,7.49A.61.61,0,0,1,108,538.51Zm8.21,8.72-.56-1.4,11.19-4.64.6,1.39a5.05,5.05,0,0,0,.31.59l-11.35,4.7A5.07,5.07,0,0,0,116.2,547.22Zm49.34,41.35c1.43,3.46-.1,7.72-3.66,8.85-4.06,1.28-12.53,2.79-16.46,4.42s-11,6.55-14.77,8.52c-3.32,1.73-7.42-.21-8.85-3.66l-14.4-34.75c-1.43-3.46.75-6.5,3.66-8.85,2.23-1.8,4.26-5.51,5.14-7.62a12.65,12.65,0,0,0,.55-4.75l12.77-5.29a12.65,12.65,0,0,0,3.75,3c2.11.88,6.17,2.06,9,1.76,3.72-.4,7.42.21,8.85,3.66Z"/>
      <path class="cls-1" d="M150.77,572.94a2.08,2.08,0,0,1-1.13,2.72L141,579.23l3.57,8.61a2.08,2.08,0,0,1-1.13,2.72l-1.88.78a2.08,2.08,0,0,1-2.72-1.13l-3.57-8.61-8.61,3.57A2.08,2.08,0,0,1,124,584l-.78-1.88a2.08,2.08,0,0,1,1.13-2.72l8.61-3.57-3.57-8.61a2.08,2.08,0,0,1,1.13-2.72l1.88-.78a2.08,2.08,0,0,1,2.72,1.13l3.57,8.61,8.61-3.57a2.08,2.08,0,0,1,2.72,1.13Z"/>
      <path class="cls-1" d="M76.1,160.77a21.2,21.2,0,0,1-7.78-1.12,12.8,12.8,0,0,1-3.25-2.29,1.36,1.36,0,0,0,.09-1.19,1.39,1.39,0,0,0-1.82-.75l-.1,0a7.41,7.41,0,0,1-1.11-1.68l-.07-.18,2.29-.95a1.33,1.33,0,0,0,.55-1.78l-4.61-11.13a1.33,1.33,0,0,0-1.65-.87l-20.17,8.36a1.33,1.33,0,0,0-.55,1.78l4.61,11.13a1.33,1.33,0,0,0,1.65.87l2.29-.95.07.18a7.41,7.41,0,0,1,.41,2l-.1,0a1.39,1.39,0,0,0-.75,1.82,1.36,1.36,0,0,0,.91.78,12.8,12.8,0,0,1-.68,3.92,21.2,21.2,0,0,1-4.7,6.3c-3.2,2.61-5.63,6-4,9.77l15.9,38.37c1.58,3.82,6.11,6,9.77,4,4.17-2.17,12-7.6,16.3-9.4s13.69-3.47,18.18-4.88c3.94-1.24,5.63-6,4-9.77l-15.9-38.37C84.29,161,80.21,160.34,76.1,160.77ZM41,151.82l-1.2-2.91a.61.61,0,0,1,.25-.81l18.07-7.49a.61.61,0,0,1,.75.4l1.2,2.91a.61.61,0,0,1-.25.81l-18.07,7.49A.61.61,0,0,1,41,151.82Zm8.21,8.72-.56-1.4,11.19-4.64.6,1.39a5.05,5.05,0,0,0,.31.59l-11.35,4.7A5.07,5.07,0,0,0,49.22,160.54Zm49.34,41.35c1.43,3.46-.1,7.72-3.66,8.85-4.06,1.28-12.53,2.79-16.46,4.42s-11,6.55-14.77,8.52c-3.32,1.73-7.42-.21-8.85-3.66l-14.4-34.75c-1.43-3.46.75-6.5,3.66-8.85,2.23-1.8,4.26-5.51,5.14-7.62a12.65,12.65,0,0,0,.55-4.75l12.77-5.29a12.65,12.65,0,0,0,3.75,3c2.11.88,6.17,2.06,9,1.76,3.72-.4,7.42.21,8.85,3.66Z"/>
      <path class="cls-1" d="M83.8,186.26A2.08,2.08,0,0,1,82.67,189l-8.61,3.57,3.57,8.61a2.08,2.08,0,0,1-1.13,2.72l-1.88.78a2.08,2.08,0,0,1-2.72-1.13l-3.57-8.61-8.61,3.57A2.08,2.08,0,0,1,57,197.36l-.78-1.88a2.08,2.08,0,0,1,1.13-2.72L66,189.19l-3.57-8.61a2.08,2.08,0,0,1,1.13-2.72l1.88-.78a2.08,2.08,0,0,1,2.72,1.13l3.57,8.61,8.61-3.57A2.08,2.08,0,0,1,83,184.38Z"/>
      <path class="cls-1" d="M196.06,704.07,136.18,688.7a2.13,2.13,0,0,0-2.15.76l-2.82,3.41a2.17,2.17,0,0,1-1.85.82,2,2,0,0,0-.89.12l.73-2c.2-.55-.28-1.23-1.07-1.51L125,689.16c-.79-.29-1.59-.07-1.79.48l-3.84,10.62c-.2.55.28,1.23,1.07,1.51l3.12,1.13c.79.29,1.59.07,1.79-.48l.73-2a2,2,0,0,0,.6.66,2.17,2.17,0,0,1,.9,1.81v4.43a2.13,2.13,0,0,0,1.16,2l55.84,26.52.17.07,3.37,1.22a2.21,2.21,0,0,0,2.75-1.46l5-13.7,5-13.7a2.21,2.21,0,0,0-1.18-2.88l-3.37-1.22Zm-65.29,3.77,6.06-16.74a.49.49,0,1,1,.92.33l-6.06,16.74a.49.49,0,1,1-.92-.33Zm34.36-5.45c8.65,3.13,14.46,9,13,13.11s-9.71,4.9-18.36,1.77-14.46-9-13-13.11S156.48,699.27,165.13,702.4Zm31,5.16-9.26,25.57a.7.7,0,1,1-1.32-.48l9.26-25.57a.7.7,0,1,1,1.32.48Z"/>
      <path class="cls-1" d="M1728.74,696.18c-7.33-8.06-26-3-41.67,11.24s-22.45,32.36-15.12,40.42,26,3,41.67-11.24S1736.07,704.24,1728.74,696.18Zm-21,37.61-19.07-21a2.47,2.47,0,0,1,.16-3.49h0a2.47,2.47,0,0,1,3.49.16l19.07,21a2.47,2.47,0,0,1-.16,3.49h0A2.47,2.47,0,0,1,1707.72,733.79Z"/>
      <path class="cls-1" d="M112,751.27l-13.78,3.15a13.09,13.09,0,0,0-25,5.71l-15,3.42A4.56,4.56,0,0,0,54.86,769l8.79,38.46a4.56,4.56,0,0,0,5.46,3.43l53.72-12.28a4.56,4.56,0,0,0,3.43-5.46l-8.79-38.46A4.56,4.56,0,0,0,112,751.27Zm-27.89-1.12a10,10,0,0,1,11,5l-18.81,4.3A10,10,0,0,1,84.12,750.15Zm22.18,30.93L94,783.9l2.82,12.35a2.67,2.67,0,0,1-2,3.2h0a2.67,2.67,0,0,1-3.2-2L88.74,785.1l-12.35,2.82a2.67,2.67,0,0,1-1.19-5.21l12.35-2.82-2.82-12.35a2.67,2.67,0,0,1,2-3.2h0a2.67,2.67,0,0,1,3.2,2l2.82,12.35,12.35-2.82a2.67,2.67,0,1,1,1.19,5.21Z"/>
      <path class="cls-1" d="M88.61,315.24h0A8.32,8.32,0,0,0,76.85,315L34.09,355.7A8.32,8.32,0,0,0,32,364.56a1.22,1.22,0,0,1-.32,1.29l-13.1,12.48a2.62,2.62,0,0,0-.09,3.7h0a2.62,2.62,0,0,0,3.7.09l13.16-12.54a1.13,1.13,0,0,1,1.22-.21,8.32,8.32,0,0,0,9-1.64L88.33,327A8.32,8.32,0,0,0,88.61,315.24Zm-66.93,66a1.62,1.62,0,0,1-2.42-.21,1.66,1.66,0,0,1,.23-2.18l5.67-5.41,2.24,2.35Zm22.07-15.17a5.87,5.87,0,0,1-7,.82l44-41.91a1.66,1.66,0,0,0,.23-2.18,1.62,1.62,0,0,0-2.42-.21l-44,41.95a5.87,5.87,0,0,1,1.15-7L78.18,317a5.86,5.86,0,0,1,8.29.2h0a5.86,5.86,0,0,1-.2,8.29Z"/>
      <path class="cls-1" d="M183.84,405.73l-11.66-8.43,3-4.16,5.23,3.78a2.1,2.1,0,0,0,2.46-3.4l-14.37-10.38a2.1,2.1,0,0,0-2.46,3.4l5.23,3.78-3,4.16-11.66-8.43a3.5,3.5,0,1,0-4.1,5.67l3.42,2.47c-.1.12-.21.24-.3.37L125.41,436.4a4.82,4.82,0,0,0,1.08,6.73l4.35,3.14-2.32,3.21a1,1,0,0,0,.22,1.38l.18.13-12.7,17.57a1.21,1.21,0,1,0,2,1.41l12.7-17.57.18.13a1,1,0,0,0,1.38-.22l2.32-3.21,4.35,3.14a4.82,4.82,0,0,0,6.73-1.08l30.24-41.83c.09-.13.18-.26.26-.4l3.42,2.47a3.5,3.5,0,0,0,4.1-5.67ZM145.11,449a3.94,3.94,0,0,1-5.5.88l-10.84-7.83a3.94,3.94,0,0,1-.88-5.5l27.51-38.06a3.94,3.94,0,0,1,5.5-.88l10.84,7.83a3.94,3.94,0,0,1,.88,5.5Z"/>
      <path class="cls-1" d="M160.6,401.6a.94.94,0,0,0-1.31.21l-27.42,37.93a.94.94,0,1,0,1.52,1.1l27.42-37.93A.94.94,0,0,0,160.6,401.6Z"/>
      <path class="cls-1" d="M71.77,441.23,24.1,463A16.38,16.38,0,0,0,16,484.74h0a16.38,16.38,0,0,0,21.71,8.08L85.39,471a16.38,16.38,0,0,0,8.08-21.71h0A16.38,16.38,0,0,0,71.77,441.23Zm-26.13,45.1-8.52,3.9a13.76,13.76,0,0,1-11.45-25l8.52-3.9Zm4.46-5A2.54,2.54,0,1,1,51.35,478,2.54,2.54,0,0,1,50.1,481.36Zm-3.56-7.79a2.54,2.54,0,1,1,1.25-3.36A2.54,2.54,0,0,1,46.53,473.57ZM43,465.78a2.54,2.54,0,1,1,1.25-3.36A2.54,2.54,0,0,1,43,465.78Zm16.39,11.34a2.54,2.54,0,1,1,1.25-3.36A2.54,2.54,0,0,1,59.36,477.12Zm-3.56-7.79A2.54,2.54,0,1,1,57.05,466,2.54,2.54,0,0,1,55.8,469.33Zm-3.56-7.79a2.54,2.54,0,1,1,1.25-3.36A2.54,2.54,0,0,1,52.24,461.54Zm16.39,11.34a2.54,2.54,0,1,1,1.25-3.36A2.54,2.54,0,0,1,68.63,472.88Zm-3.56-7.79a2.54,2.54,0,1,1,1.25-3.36A2.54,2.54,0,0,1,65.07,465.09Zm-3.56-7.79a2.54,2.54,0,1,1,1.25-3.36A2.54,2.54,0,0,1,61.51,457.3Zm22.32,11.55-8.52,3.9-11.45-25,8.52-3.9a13.76,13.76,0,0,1,11.45,25Z"/>
      <path class="cls-1" d="M135.19,241,157,288.71a16.38,16.38,0,0,0,21.71,8.08h0a16.38,16.38,0,0,0,8.08-21.71L165,227.42a16.38,16.38,0,0,0-21.71-8.08h0A16.38,16.38,0,0,0,135.19,241Zm45.1,26.13,3.9,8.52a13.76,13.76,0,0,1-25,11.45l-3.9-8.52Zm-5-4.46a2.54,2.54,0,1,1-3.36-1.25A2.54,2.54,0,0,1,175.33,262.71Zm-7.79,3.56a2.54,2.54,0,1,1-3.36-1.25A2.54,2.54,0,0,1,167.54,266.27Zm-7.79,3.56a2.54,2.54,0,1,1-3.36-1.25A2.54,2.54,0,0,1,159.75,269.84Zm11.34-16.39a2.54,2.54,0,1,1-3.36-1.25A2.54,2.54,0,0,1,171.09,253.44ZM163.3,257a2.54,2.54,0,1,1-3.36-1.25A2.54,2.54,0,0,1,163.3,257Zm-7.79,3.56a2.54,2.54,0,1,1-3.36-1.25A2.54,2.54,0,0,1,155.51,260.57Zm11.34-16.39a2.54,2.54,0,1,1-3.36-1.25A2.54,2.54,0,0,1,166.85,244.18Zm-7.79,3.56a2.54,2.54,0,1,1-3.36-1.25A2.54,2.54,0,0,1,159.06,247.74Zm-7.79,3.56a2.54,2.54,0,1,1-3.36-1.25A2.54,2.54,0,0,1,151.27,251.3ZM162.82,229l3.9,8.52-25,11.45-3.9-8.52a13.76,13.76,0,0,1,25-11.45Z"/>
      <path class="cls-1" d="M94.63,1076l-45.91,25.3a16.38,16.38,0,0,0-6.44,22.25h0A16.38,16.38,0,0,0,64.54,1130l45.91-25.3a16.38,16.38,0,0,0,6.44-22.25h0A16.38,16.38,0,0,0,94.63,1076Zm-22.7,46.92-8.21,4.52a13.76,13.76,0,0,1-13.28-24.1l8.21-4.52Zm4.08-5.28a2.54,2.54,0,1,1,1-3.45A2.54,2.54,0,0,1,76,1117.65Zm-4.13-7.5a2.54,2.54,0,1,1,1-3.45A2.54,2.54,0,0,1,71.88,1110.14Zm-4.13-7.5a2.54,2.54,0,1,1,1-3.45A2.54,2.54,0,0,1,67.75,1102.64Zm17.19,10.09a2.54,2.54,0,1,1,1-3.45A2.54,2.54,0,0,1,84.94,1112.73Zm-4.13-7.5a2.54,2.54,0,1,1,1-3.45A2.54,2.54,0,0,1,80.81,1105.23Zm-4.13-7.5a2.54,2.54,0,1,1,1-3.45A2.54,2.54,0,0,1,76.68,1097.72Zm17.19,10.09a2.54,2.54,0,1,1,1-3.45A2.54,2.54,0,0,1,93.87,1107.81Zm-4.13-7.5a2.54,2.54,0,1,1,1-3.45A2.54,2.54,0,0,1,89.73,1100.31Zm-4.13-7.5a2.54,2.54,0,1,1,1-3.45A2.54,2.54,0,0,1,85.6,1092.81Zm23.12,9.85-8.21,4.52-13.28-24.1,8.21-4.52a13.76,13.76,0,0,1,13.28,24.1Z"/>
      <path class="cls-1" d="M1817,719.13,1749.62,748a17.64,17.64,0,0,0,13.89,32.42l67.39-28.87A17.64,17.64,0,1,0,1817,719.13Zm-21.37,43.21-32.84,14.07A13.67,13.67,0,0,1,1752,751.28l32.84-14.07Z"/>
      <path class="cls-1" d="M1751.51,760a3.72,3.72,0,0,0,4.88,2l17.93-7.68a3.72,3.72,0,1,0-2.93-6.83l-17.93,7.68A3.72,3.72,0,0,0,1751.51,760Z"/>
      <path class="cls-1" d="M1581.93,169.33,1547.59,184a9,9,0,0,0,7.08,16.52L1589,185.86a9,9,0,1,0-7.08-16.52Zm-10.89,22-16.74,7.17a7,7,0,0,1-5.48-12.8l16.74-7.17Z"/>
      <path class="cls-1" d="M1548.55,190.15a1.89,1.89,0,0,0,2.49,1l9.14-3.91a1.89,1.89,0,1,0-1.49-3.48l-9.14,3.91A1.89,1.89,0,0,0,1548.55,190.15Z"/>
      <path class="cls-1" d="M1520.39,156.8l-24-28.66a9,9,0,0,0-13.79,11.53l24,28.66a9,9,0,0,0,13.79-11.53Zm-24.22-4.09-11.68-14a7,7,0,0,1,10.68-8.94l11.68,14Z"/>
      <path class="cls-1" d="M1490.85,130.82a1.89,1.89,0,0,0-.24,2.67l6.38,7.62a1.89,1.89,0,1,0,2.91-2.43l-6.38-7.62A1.89,1.89,0,0,0,1490.85,130.82Z"/>
      <path class="cls-1" d="M1523.41,608.57h-57.48a13.83,13.83,0,0,0,0,27.66h57.48a13.83,13.83,0,0,0,0-27.66Zm-28.74,24.54h-28a10.71,10.71,0,0,1,0-21.43h28Zm25.09-3.33h-15.29a2.91,2.91,0,0,1,0-5.83h15.29a2.91,2.91,0,0,1,0,5.83Z"/>
      <path class="cls-1" d="M1410.41,115.31a17.17,17.17,0,1,0,22.58,8.94A17.17,17.17,0,0,0,1410.41,115.31Zm14.29,27.48a2.2,2.2,0,1,1-4,1.75l-10.9-25.19a2.2,2.2,0,1,1,4-1.75Z"/>
      <path class="cls-1" d="M1572.33,257.44a17.17,17.17,0,1,0-15.9,18.36A17.17,17.17,0,0,0,1572.33,257.44Zm-30.65,4.41a2.2,2.2,0,0,1-.32-4.39l27.37-2a2.2,2.2,0,1,1,.32,4.39Z"/>
      <path class="cls-1" d="M1553.29,547.9a16.56,16.56,0,1,0,16.56,16.56A16.56,16.56,0,0,0,1553.29,547.9Zm12,18.49h-10.1v10.1a1.93,1.93,0,0,1-3.86,0v-10.1h-10.1a1.93,1.93,0,0,1,0-3.86h10.1v-10.1a1.93,1.93,0,0,1,3.86,0v10.1h10.1a1.93,1.93,0,0,1,0,3.86Z"/>
      <path class="cls-1" d="M1135.85,347l26.41-102.92a3.66,3.66,0,0,0-1.31-3.7l-5.86-4.85a3.73,3.73,0,0,1-1.4-3.18,3.45,3.45,0,0,0-.21-1.52l3.46,1.25c.94.34,2.11-.48,2.6-1.84l1.94-5.35c.49-1.36.13-2.74-.82-3.08l-18.26-6.61c-.94-.34-2.11.48-2.6,1.84l-1.94,5.35c-.49,1.36-.13,2.74.82,3.08l3.46,1.25a3.45,3.45,0,0,0-1.14,1,3.73,3.73,0,0,1-3.12,1.55l-7.61,0a3.66,3.66,0,0,0-3.38,2l-45.57,96q-.07.14-.12.29l-2.09,5.79a3.8,3.8,0,0,0,2.51,4.73l23.54,8.52,23.54,8.52a3.8,3.8,0,0,0,5-2l2.09-5.79Q1135.81,347.18,1135.85,347Zm-6.49-112.23,28.78,10.41a.85.85,0,1,1-.57,1.59l-28.78-10.41a.85.85,0,1,1,.57-1.59Zm9.36,59.07c-5.38,14.87-15.47,24.86-22.54,22.3s-8.43-16.69-3-31.56,15.47-24.86,22.54-22.3S1144.1,279,1138.72,293.87Zm-8.87,53.24-44-15.91a1.21,1.21,0,1,1,.82-2.27l44,15.91a1.21,1.21,0,1,1-.82,2.27Z"/>
      <path class="cls-1" d="M1405.35,381.15h-15a4.52,4.52,0,0,0-.54,9v70.28a8.23,8.23,0,0,0,8.23,8.23h0a8.23,8.23,0,0,0,8.23-8.23V390.1a4.52,4.52,0,0,0-.9-8.95Zm-16.1,5.16a1.32,1.32,0,0,1-1.32-1.32h0a1.32,1.32,0,0,1,1.32-1.32h12a1.32,1.32,0,0,1,1.32,1.32h0a1.32,1.32,0,0,1-1.32,1.32Zm15.19,71.23A6.42,6.42,0,0,1,1398,464h0a6.42,6.42,0,0,1-6.42-6.42V390.19h12.84Z"/>
      <path class="cls-1" d="M1395.25,450a1.32,1.32,0,0,0,1.32-1.32V402.86a1.32,1.32,0,0,0-2.63,0v45.81A1.32,1.32,0,0,0,1395.25,450Z"/>
      <path class="cls-1" d="M1499.94,482.86l-6.16-6.16h0l-6.46-6.46a5.37,5.37,0,0,0-8,7.12l-59.1,59.1a9.78,9.78,0,0,0,0,13.84h0a9.78,9.78,0,0,0,13.84,0l59.15-59.15a5.38,5.38,0,0,0,6.77-8.29Zm-17.88-9.19a1.57,1.57,0,0,1,0-2.21h0a1.57,1.57,0,0,1,2.21,0l10.09,10.09a1.57,1.57,0,0,1,0,2.21h0a1.57,1.57,0,0,1-2.21,0Zm-47.12,72.68a7.63,7.63,0,0,1-10.8,0h0a7.63,7.63,0,0,1,0-10.8l56.64-56.64,10.8,10.8Z"/>
      <path class="cls-1" d="M1433.55,532.26a1.57,1.57,0,0,0,2.21,0l38.53-38.53a1.57,1.57,0,0,0-2.21-2.21L1433.55,530A1.57,1.57,0,0,0,1433.55,532.26Z"/>
      <path class="cls-1" d="M1607.65,864.84c-8,7.35-3,26,11.34,41.64s32.41,22.38,40.45,15,3-26-11.34-41.64S1615.69,857.49,1607.65,864.84Zm37.66,20.93-20.92,19.12a2.47,2.47,0,0,1-3.49-.16h0a2.47,2.47,0,0,1,.16-3.49L1642,882.12a2.47,2.47,0,0,1,3.49.16h0A2.47,2.47,0,0,1,1645.3,885.77Z"/>
      <path class="cls-1" d="M1416.23,776.81l-11.76,5-1.8-4.19,5.27-2.26a1.87,1.87,0,0,0-1.47-3.43L1392,778.18a1.87,1.87,0,0,0,1.47,3.43l5.27-2.26,1.8,4.19-11.76,5a3.11,3.11,0,1,0,2.45,5.72l3.45-1.48c0,.13.09.27.15.4l18.09,42.19a4.29,4.29,0,0,0,5.63,2.25l4.38-1.88,1.39,3.24a.88.88,0,0,0,1.15.46l.18-.08,7.6,17.72a1.07,1.07,0,1,0,2-.84l-7.6-17.72.18-.08a.88.88,0,0,0,.46-1.15l-1.39-3.24,4.38-1.88a4.29,4.29,0,0,0,2.25-5.63l-18.09-42.19c-.06-.13-.12-.26-.19-.38l3.45-1.48a3.11,3.11,0,0,0-2.45-5.72Zm15.33,49.35a3.5,3.5,0,0,1-1.84,4.6l-10.93,4.69a3.5,3.5,0,0,1-4.6-1.84l-16.46-38.38a3.5,3.5,0,0,1,1.84-4.6l10.93-4.69a3.5,3.5,0,0,1,4.6,1.84Z"/>
      <path class="cls-1" d="M1402.45,792.65a.83.83,0,0,0-.44,1.09l16.4,38.25a.83.83,0,1,0,1.53-.66l-16.4-38.25A.83.83,0,0,0,1402.45,792.65Z"/>
      <path class="cls-1" d="M1690.76,999.9l-51.32-27.63a18.21,18.21,0,0,0-24.67,7.4h0a18.21,18.21,0,0,0,7.4,24.67l51.32,27.63a18.21,18.21,0,0,0,24.67-7.4h0A18.21,18.21,0,0,0,1690.76,999.9Zm-57.52,7.1-9.17-4.94a15.3,15.3,0,0,1,14.5-26.94l9.17,4.94Zm7.4.63a2.82,2.82,0,1,1,3.82-1.15A2.82,2.82,0,0,1,1640.64,1007.63Zm4.51-8.39a2.82,2.82,0,1,1,3.82-1.15A2.82,2.82,0,0,1,1645.15,999.24Zm4.51-8.39a2.82,2.82,0,1,1,3.82-1.15A2.82,2.82,0,0,1,1649.66,990.86Zm.95,22.14a2.82,2.82,0,1,1,3.82-1.15A2.82,2.82,0,0,1,1650.61,1013Zm4.51-8.39a2.82,2.82,0,1,1,3.82-1.15A2.82,2.82,0,0,1,1655.13,1004.61Zm4.51-8.39a2.82,2.82,0,1,1,3.82-1.15A2.82,2.82,0,0,1,1659.64,996.23Zm.95,22.14a2.82,2.82,0,1,1,3.82-1.15A2.82,2.82,0,0,1,1660.59,1018.37Zm4.51-8.39a2.82,2.82,0,1,1,3.82-1.15A2.82,2.82,0,0,1,1665.1,1010Zm4.51-8.39a2.82,2.82,0,1,1,3.82-1.15A2.82,2.82,0,0,1,1669.62,1001.6Zm4.74,27.54-9.17-4.94,14.5-26.94,9.17,4.94a15.3,15.3,0,0,1-14.5,26.94Z"/>
      <path class="cls-1" d="M1481.63,190.81l-51,28.13a18.21,18.21,0,0,0-7.16,24.74h0a18.21,18.21,0,0,0,24.74,7.16l51-28.13a18.21,18.21,0,0,0,7.16-24.74h0A18.21,18.21,0,0,0,1481.63,190.81ZM1456.39,243l-9.12,5a15.3,15.3,0,0,1-14.77-26.8l9.12-5Zm4.54-5.87a2.82,2.82,0,1,1,1.11-3.83A2.82,2.82,0,0,1,1460.93,237.11Zm-4.6-8.34a2.82,2.82,0,1,1,1.11-3.83A2.82,2.82,0,0,1,1456.33,228.77Zm-4.6-8.34a2.82,2.82,0,1,1,1.11-3.83A2.82,2.82,0,0,1,1451.73,220.43Zm19.12,11.21a2.82,2.82,0,1,1,1.11-3.83A2.82,2.82,0,0,1,1470.85,231.64Zm-4.6-8.34a2.82,2.82,0,1,1,1.11-3.83A2.82,2.82,0,0,1,1466.26,223.3Zm-4.6-8.34a2.82,2.82,0,1,1,1.11-3.83A2.82,2.82,0,0,1,1461.66,215Zm19.12,11.21a2.82,2.82,0,1,1,1.11-3.83A2.82,2.82,0,0,1,1480.78,226.18Zm-4.6-8.34a2.82,2.82,0,1,1,1.11-3.83A2.82,2.82,0,0,1,1476.18,217.83Zm-4.6-8.34a2.82,2.82,0,1,1,1.11-3.83A2.82,2.82,0,0,1,1471.58,209.49Zm25.71,11-9.12,5-14.77-26.8,9.12-5a15.3,15.3,0,0,1,14.77,26.8Z"/>
      <path class="cls-1" d="M740.42,589.31l-53.26,13.21a7.72,7.72,0,0,0-5.64,9.36L702,694.22a7.72,7.72,0,0,0,9.36,5.64l53.26-13.21a7.72,7.72,0,0,0,5.64-9.36l-20.42-82.34A7.72,7.72,0,0,0,740.42,589.31Zm-20.31,98.17a8,8,0,1,1,5.81-9.63A8,8,0,0,1,720.11,687.48Zm-5.19-20.93a8,8,0,1,1,5.81-9.63A8,8,0,0,1,714.92,666.55Zm-5.19-20.93a8,8,0,1,1,5.81-9.63A8,8,0,0,1,709.73,645.62Zm-5.19-20.93a8,8,0,1,1,5.81-9.63A8,8,0,0,1,704.54,624.69ZM737,685.06l-2,.5L714.73,604l2-.5Zm14-5.24a8,8,0,1,1,5.81-9.63A8,8,0,0,1,751,679.82Zm-5.19-20.93a8,8,0,1,1,5.81-9.63A8,8,0,0,1,745.8,658.89ZM740.61,638a8,8,0,1,1,5.81-9.63A8,8,0,0,1,740.61,638ZM735.42,617a8,8,0,1,1,5.81-9.63A8,8,0,0,1,735.42,617Z"/>
      <path class="cls-1" d="M1362,578.64,1335,592a4.24,4.24,0,0,0-1.93,5.68l20.59,41.76a4.24,4.24,0,0,0,5.68,1.93l27-13.31a4.24,4.24,0,0,0,1.93-5.68l-20.59-41.76A4.24,4.24,0,0,0,1362,578.64Zm.6,55a4.37,4.37,0,1,1,2-5.85A4.37,4.37,0,0,1,1362.6,633.66ZM1357.37,623a4.37,4.37,0,1,1,2-5.85A4.37,4.37,0,0,1,1357.37,623Zm-5.23-10.62a4.37,4.37,0,1,1,2-5.85A4.37,4.37,0,0,1,1352.14,612.43Zm-5.23-10.62a4.37,4.37,0,1,1,2-5.85A4.37,4.37,0,0,1,1346.9,601.81Zm24.45,28.58-1,.5-20.39-41.37,1-.5Zm6.9-4.45a4.37,4.37,0,1,1,2-5.85A4.37,4.37,0,0,1,1378.26,625.94ZM1373,615.32a4.37,4.37,0,1,1,2-5.85A4.37,4.37,0,0,1,1373,615.32Zm-5.23-10.62a4.37,4.37,0,1,1,2-5.85A4.37,4.37,0,0,1,1367.8,604.71Zm-5.23-10.62a4.37,4.37,0,1,1,2-5.85A4.37,4.37,0,0,1,1362.57,594.09Z"/>
      <path class="cls-2" d="M1964.72,1115.69l-13.31-27a4.24,4.24,0,0,0-5.68-1.93L1904,1107.34A4.24,4.24,0,0,0,1902,1113l13.31,27A4.24,4.24,0,0,0,1921,1142l41.76-20.59A4.24,4.24,0,0,0,1964.72,1115.69Zm-55,.6a4.37,4.37,0,1,1,5.85,2A4.37,4.37,0,0,1,1909.7,1116.29Zm10.62-5.23a4.37,4.37,0,1,1,5.85,2A4.37,4.37,0,0,1,1920.32,1111.06Zm10.62-5.23a4.37,4.37,0,1,1,5.85,2A4.37,4.37,0,0,1,1930.94,1105.83Zm10.62-5.23a4.37,4.37,0,1,1,5.85,2A4.37,4.37,0,0,1,1941.55,1100.59ZM1913,1125l-.5-1,41.37-20.39.5,1Zm4.45,6.9a4.37,4.37,0,1,1,5.85,2A4.37,4.37,0,0,1,1917.42,1132Zm10.62-5.23a4.37,4.37,0,1,1,5.85,2A4.37,4.37,0,0,1,1928,1126.72Zm10.62-5.23a4.37,4.37,0,1,1,5.85,2A4.37,4.37,0,0,1,1938.66,1121.49Zm10.62-5.23a4.37,4.37,0,1,1,5.85,2A4.37,4.37,0,0,1,1949.27,1116.26Z"/>
      <path class="cls-1" d="M1746.57,1182.61a9.25,9.25,0,0,0,.32-13.08h0a9.25,9.25,0,0,0-13.08-.32l-47.55,45.31m1.75,2.07,47.28-45.05a6.52,6.52,0,0,1,9.22.22h0a6.52,6.52,0,0,1-.22,9.22m-6.17-.64a1.85,1.85,0,0,0,.26-2.42,1.8,1.8,0,0,0-2.7-.23"/>
      <path class="cls-1" d="M1798.68,1087l24.24,53a18.21,18.21,0,0,0,24.14,9h0a18.21,18.21,0,0,0,9-24.14l-24.24-53a18.21,18.21,0,0,0-24.14-9h0A18.21,18.21,0,0,0,1798.68,1087Zm50.14,29.06,4.33,9.47a15.3,15.3,0,0,1-27.83,12.73l-4.33-9.47Zm-5.52-5a2.82,2.82,0,1,1-3.74-1.39A2.82,2.82,0,0,1,1843.31,1111.12Zm-8.66,4a2.82,2.82,0,1,1-3.74-1.39A2.82,2.82,0,0,1,1834.65,1115.08Zm-8.66,4a2.82,2.82,0,1,1-3.74-1.39A2.82,2.82,0,0,1,1826,1119Zm12.61-18.23a2.82,2.82,0,1,1-3.74-1.39A2.82,2.82,0,0,1,1838.59,1100.82Zm-8.66,4a2.82,2.82,0,1,1-3.74-1.39A2.82,2.82,0,0,1,1829.93,1104.78Zm-8.66,4a2.82,2.82,0,1,1-3.74-1.39A2.82,2.82,0,0,1,1821.27,1108.74Zm12.61-18.23a2.82,2.82,0,1,1-3.74-1.39A2.82,2.82,0,0,1,1833.88,1090.51Zm-8.66,4a2.82,2.82,0,1,1-3.74-1.39A2.82,2.82,0,0,1,1825.22,1094.47Zm-8.66,4a2.82,2.82,0,1,1-3.74-1.39A2.82,2.82,0,0,1,1816.56,1098.43Zm12.84-24.82,4.33,9.47-27.83,12.73-4.33-9.47a15.3,15.3,0,0,1,27.83-12.73Z"/>
      <path class="cls-1" d="M722.91,162.72c-7.33-8.06-26-3-41.67,11.24s-22.45,32.36-15.12,40.42,26,3,41.67-11.24S730.24,170.78,722.91,162.72Zm-21,37.61-19.07-21a2.47,2.47,0,0,1,.16-3.49h0a2.47,2.47,0,0,1,3.49.16l19.07,21a2.47,2.47,0,0,1-.16,3.49h0A2.47,2.47,0,0,1,701.89,200.33Z"/>
      <path class="cls-1" d="M1746.17,817.81l-32.29,13.83a8.45,8.45,0,0,0,6.65,15.53l32.29-13.83a8.45,8.45,0,0,0-6.65-15.53Zm-10.24,20.7-15.73,6.74a6.55,6.55,0,0,1-5.16-12l15.73-6.74Z"/>
      <path class="cls-1" d="M1714.79,837.38a1.78,1.78,0,0,0,2.34.94l8.59-3.68a1.78,1.78,0,1,0-1.4-3.27l-8.59,3.68A1.78,1.78,0,0,0,1714.79,837.38Z"/>
      <path class="cls-1" d="M1824,164.16l-34.34,14.71a9,9,0,0,0,7.08,16.52l34.34-14.71a9,9,0,1,0-7.08-16.52Zm-10.89,22-16.74,7.17a7,7,0,0,1-5.48-12.8l16.74-7.17Z"/>
      <path class="cls-1" d="M1790.64,185a1.89,1.89,0,0,0,2.49,1l9.14-3.91a1.89,1.89,0,0,0-1.49-3.48l-9.14,3.91A1.89,1.89,0,0,0,1790.64,185Z"/>
      <path class="cls-1" d="M1762.48,151.62l-24-28.66a9,9,0,0,0-13.79,11.53l24,28.66a9,9,0,0,0,13.79-11.53Zm-24.22-4.09-11.68-14a7,7,0,0,1,10.68-8.94l11.68,14Z"/>
      <path class="cls-1" d="M1732.93,125.65a1.89,1.89,0,0,0-.24,2.67l6.38,7.62a1.89,1.89,0,1,0,2.91-2.43l-6.38-7.62A1.89,1.89,0,0,0,1732.93,125.65Z"/>
      <path class="cls-1" d="M1765.49,603.39H1708a13.83,13.83,0,0,0,0,27.66h57.48a13.83,13.83,0,1,0,0-27.66Zm-28.74,24.54h-28a10.71,10.71,0,0,1,0-21.43h28Zm25.09-3.33h-15.29a2.91,2.91,0,1,1,0-5.83h15.29a2.91,2.91,0,1,1,0,5.83Z"/>
      <path class="cls-1" d="M1652.49,110.13a17.17,17.17,0,1,0,22.58,8.94A17.17,17.17,0,0,0,1652.49,110.13Zm14.29,27.48a2.2,2.2,0,1,1-4,1.75l-10.9-25.19a2.2,2.2,0,0,1,4-1.75Z"/>
      <path class="cls-1" d="M1814.42,252.26a17.17,17.17,0,1,0-15.9,18.36A17.17,17.17,0,0,0,1814.42,252.26Zm-30.65,4.41a2.2,2.2,0,0,1-.32-4.39l27.37-2a2.2,2.2,0,0,1,.32,4.39Z"/>
      <path class="cls-1" d="M1795.38,542.72a16.56,16.56,0,1,0,16.56,16.56A16.56,16.56,0,0,0,1795.38,542.72Zm12,18.49h-10.1v10.1a1.93,1.93,0,1,1-3.86,0v-10.1h-10.1a1.93,1.93,0,0,1,0-3.86h10.1v-10.1a1.93,1.93,0,1,1,3.86,0v10.1h10.1a1.93,1.93,0,0,1,0,3.86Z"/>
      <path class="cls-1" d="M1782,988.57l26.41-102.92a3.66,3.66,0,0,0-1.31-3.7l-5.86-4.85a3.73,3.73,0,0,1-1.4-3.18,3.45,3.45,0,0,0-.21-1.52l3.46,1.25c.94.34,2.11-.48,2.6-1.84l1.94-5.35c.49-1.36.13-2.74-.82-3.08l-18.26-6.61c-.94-.34-2.11.48-2.6,1.84L1784,864c-.49,1.36-.13,2.74.82,3.08l3.46,1.25a3.45,3.45,0,0,0-1.14,1,3.73,3.73,0,0,1-3.12,1.55l-7.61,0a3.66,3.66,0,0,0-3.38,2l-45.57,96q-.07.14-.12.29l-2.09,5.79a3.8,3.8,0,0,0,2.51,4.73l23.54,8.52,23.54,8.52a3.8,3.8,0,0,0,5-2l2.09-5.79Q1781.92,988.73,1782,988.57Zm-6.49-112.23,28.78,10.41a.85.85,0,1,1-.57,1.59l-28.78-10.41a.85.85,0,1,1,.57-1.59Zm9.36,59.07c-5.38,14.87-15.47,24.86-22.54,22.3s-8.43-16.69-3-31.56,15.47-24.86,22.54-22.3S1790.22,920.54,1784.84,935.41ZM1776,988.65l-44-15.91a1.21,1.21,0,1,1,.82-2.27l44,15.91a1.21,1.21,0,1,1-.82,2.27Z"/>
      <path class="cls-1" d="M1647.43,376h-15a4.52,4.52,0,0,0-.54,9v70.28a8.23,8.23,0,0,0,8.23,8.23h0a8.23,8.23,0,0,0,8.23-8.23V384.92a4.52,4.52,0,0,0-.9-8.95Zm-16.1,5.16a1.32,1.32,0,0,1-1.32-1.32h0a1.32,1.32,0,0,1,1.32-1.32h12a1.32,1.32,0,0,1,1.32,1.32h0a1.32,1.32,0,0,1-1.32,1.32Zm15.19,71.23a6.42,6.42,0,0,1-6.42,6.42h0a6.42,6.42,0,0,1-6.42-6.42V385h12.84Z"/>
      <path class="cls-1" d="M1637.34,444.82a1.32,1.32,0,0,0,1.32-1.32V397.69a1.32,1.32,0,0,0-2.63,0V443.5A1.32,1.32,0,0,0,1637.34,444.82Z"/>
      <path class="cls-1" d="M1742,477.68l-6.16-6.16h0l-6.46-6.46a5.37,5.37,0,0,0-8,7.12l-59.1,59.1a9.78,9.78,0,0,0,0,13.84h0a9.78,9.78,0,0,0,13.84,0L1735.26,486a5.38,5.38,0,0,0,6.77-8.29Zm-17.88-9.19a1.57,1.57,0,0,1,0-2.21h0a1.57,1.57,0,0,1,2.21,0l10.09,10.09a1.57,1.57,0,0,1,0,2.21h0a1.57,1.57,0,0,1-2.21,0ZM1677,541.16a7.63,7.63,0,0,1-10.8,0h0a7.63,7.63,0,0,1,0-10.8l56.64-56.64,10.8,10.8Z"/>
      <path class="cls-1" d="M1675.64,527.08a1.57,1.57,0,0,0,2.21,0l38.53-38.53a1.57,1.57,0,0,0-2.21-2.21l-38.53,38.53A1.57,1.57,0,0,0,1675.64,527.08Z"/>
      <path class="cls-1" d="M398,341.14c-8,7.35-3,26,11.34,41.64s32.41,22.38,40.45,15,3-26-11.34-41.64S406.06,333.8,398,341.14Zm37.66,20.93L414.75,381.2a2.47,2.47,0,0,1-3.49-.16h0a2.47,2.47,0,0,1,.16-3.49l20.92-19.12a2.47,2.47,0,0,1,3.49.16h0A2.47,2.47,0,0,1,435.67,362.08Z"/>
      <path class="cls-1" d="M1658.32,771.63l-11.76,5-1.8-4.19,5.27-2.26a1.87,1.87,0,0,0-1.47-3.43L1634.07,773a1.87,1.87,0,0,0,1.47,3.43l5.27-2.26,1.8,4.19-11.76,5a3.11,3.11,0,0,0,2.45,5.72l3.45-1.48c0,.13.09.27.15.4L1655,830.23a4.29,4.29,0,0,0,5.63,2.25l4.38-1.88,1.39,3.24a.88.88,0,0,0,1.15.46l.18-.08,7.6,17.72a1.07,1.07,0,1,0,2-.84l-7.6-17.72.18-.08a.88.88,0,0,0,.46-1.15l-1.39-3.24,4.38-1.88a4.29,4.29,0,0,0,2.25-5.63l-18.09-42.19c-.06-.13-.12-.26-.19-.38l3.45-1.48a3.11,3.11,0,0,0-2.45-5.72ZM1673.65,821a3.5,3.5,0,0,1-1.84,4.6l-10.93,4.69a3.5,3.5,0,0,1-4.6-1.84L1639.82,790a3.5,3.5,0,0,1,1.84-4.6l10.93-4.69a3.5,3.5,0,0,1,4.6,1.84Z"/>
      <path class="cls-1" d="M1644.54,787.47a.83.83,0,0,0-.44,1.09l16.4,38.25a.83.83,0,1,0,1.53-.66l-16.4-38.25A.83.83,0,0,0,1644.54,787.47Z"/>
      <path class="cls-1" d="M1778.67,353.15a1.4,1.4,0,0,0-1.46-1.34h-18.58a1.35,1.35,0,1,0,0,2.68h18.58A1.4,1.4,0,0,0,1778.67,353.15Z"/>
      <path class="cls-1" d="M1758.63,343.75h18.58a1.35,1.35,0,1,0,0-2.68h-18.58a1.35,1.35,0,1,0,0,2.68Z"/>
      <path class="cls-1" d="M1758.63,333h18.58a1.35,1.35,0,1,0,0-2.68h-18.58a1.35,1.35,0,1,0,0,2.68Z"/>
      <path class="cls-1" d="M1758.63,322.25h18.58a1.35,1.35,0,1,0,0-2.68h-18.58a1.35,1.35,0,1,0,0,2.68Z"/>
      <path class="cls-1" d="M1758.63,311.5h18.58a1.35,1.35,0,1,0,0-2.68h-18.58a1.35,1.35,0,1,0,0,2.68Z"/>
      <path class="cls-1" d="M1804.5,415.81c-24.5,0-44.41-18.12-44.81-40.62a.65.65,0,0,0,0-.11h2.62a2,2,0,0,0,1.57-.73l5.77-7.14a2,2,0,0,1,1.57-.73H1776c5.4,0,9.78-4,9.78-9V304.6c0-5-4.38-9-9.78-9h-38c-5.4,0-9.78,4-9.78,9v52.89c0,5,4.38,9,9.78,9H1744a2,2,0,0,1,1.57.73l5.77,7.14a2,2,0,0,0,1.57.73h3.31a.63.63,0,0,0,0,.12c.41,24.28,21.89,43.84,48.33,43.84h0a.72.72,0,0,0,.75-.69v-1.85A.73.73,0,0,0,1804.5,415.81ZM1753,370.71l-4.59-6.27a5.08,5.08,0,0,0-4.1-2h-5.19a6.31,6.31,0,0,1-6.55-6V306.73a6.31,6.31,0,0,1,6.55-6h35.85a6.31,6.31,0,0,1,6.55,6v49.66a6.31,6.31,0,0,1-6.55,6h-4.22a4.78,4.78,0,0,0-3.94,2l-4.32,6.25a1.33,1.33,0,0,1-1.1.56H1754A1.33,1.33,0,0,1,1753,370.71Z"/>
      <path class="cls-1" d="M763.24,391.37l-51.32-27.63a18.21,18.21,0,0,0-24.67,7.4h0a18.21,18.21,0,0,0,7.4,24.67L746,423.45a18.21,18.21,0,0,0,24.67-7.4h0A18.21,18.21,0,0,0,763.24,391.37Zm-57.52,7.1-9.17-4.94a15.3,15.3,0,0,1,14.5-26.94l9.17,4.94Zm7.4.63a2.82,2.82,0,1,1,3.82-1.15A2.82,2.82,0,0,1,713.12,399.1Zm4.51-8.39a2.82,2.82,0,1,1,3.82-1.15A2.82,2.82,0,0,1,717.64,390.71Zm4.51-8.39a2.82,2.82,0,1,1,3.82-1.15A2.82,2.82,0,0,1,722.15,382.32Zm.95,22.14a2.82,2.82,0,1,1,3.82-1.15A2.82,2.82,0,0,1,723.1,404.47Zm4.51-8.39a2.82,2.82,0,1,1,3.82-1.15A2.82,2.82,0,0,1,727.61,396.08Zm4.51-8.39a2.82,2.82,0,1,1,3.82-1.15A2.82,2.82,0,0,1,732.13,387.69Zm.95,22.14a2.82,2.82,0,1,1,3.82-1.15A2.82,2.82,0,0,1,733.08,409.84Zm4.51-8.39a2.82,2.82,0,1,1,3.82-1.15A2.82,2.82,0,0,1,737.59,401.45Zm4.51-8.39a2.82,2.82,0,1,1,3.82-1.15A2.82,2.82,0,0,1,742.11,393.06Zm4.74,27.54-9.17-4.94,14.5-26.94,9.17,4.94a15.3,15.3,0,0,1-14.5,26.94Z"/>
      <path class="cls-1" d="M1723.71,185.64l-51,28.13a18.21,18.21,0,0,0-7.16,24.74h0a18.21,18.21,0,0,0,24.74,7.16l51-28.13a18.21,18.21,0,0,0,7.16-24.74h0A18.21,18.21,0,0,0,1723.71,185.64Zm-25.24,52.17-9.12,5a15.3,15.3,0,0,1-14.77-26.8l9.12-5Zm4.54-5.87a2.82,2.82,0,1,1,1.11-3.83A2.82,2.82,0,0,1,1703,231.94Zm-4.6-8.34a2.82,2.82,0,1,1,1.11-3.83A2.82,2.82,0,0,1,1698.42,223.59Zm-4.6-8.34a2.82,2.82,0,1,1,1.11-3.83A2.82,2.82,0,0,1,1693.82,215.25Zm19.12,11.21a2.82,2.82,0,1,1,1.11-3.83A2.82,2.82,0,0,1,1712.94,226.47Zm-4.6-8.34a2.82,2.82,0,1,1,1.11-3.83A2.82,2.82,0,0,1,1708.34,218.12Zm-4.6-8.34a2.82,2.82,0,1,1,1.11-3.83A2.82,2.82,0,0,1,1703.75,209.78ZM1722.86,221a2.82,2.82,0,1,1,1.11-3.83A2.82,2.82,0,0,1,1722.86,221Zm-4.6-8.34a2.82,2.82,0,1,1,1.11-3.83A2.82,2.82,0,0,1,1718.27,212.66Zm-4.6-8.34a2.82,2.82,0,1,1,1.11-3.83A2.82,2.82,0,0,1,1713.67,204.31Zm25.71,11-9.12,5-14.77-26.8,9.12-5a15.3,15.3,0,0,1,14.77,26.8Z"/>
      <path class="cls-1" d="M1289.88,1152.16l-27,13.31a4.24,4.24,0,0,0-1.93,5.68l20.59,41.76a4.24,4.24,0,0,0,5.68,1.93l27-13.31a4.24,4.24,0,0,0,1.93-5.68l-20.59-41.76A4.24,4.24,0,0,0,1289.88,1152.16Zm.6,55a4.37,4.37,0,1,1,2-5.85A4.37,4.37,0,0,1,1290.47,1207.18Zm-5.23-10.62a4.37,4.37,0,1,1,2-5.85A4.37,4.37,0,0,1,1285.24,1196.56Zm-5.23-10.62a4.37,4.37,0,1,1,2-5.85A4.37,4.37,0,0,1,1280,1185.95Zm-5.23-10.62a4.37,4.37,0,1,1,2-5.85A4.37,4.37,0,0,1,1274.78,1175.33Zm24.45,28.58-1,.5L1277.82,1163l1-.5Zm6.9-4.45a4.37,4.37,0,1,1,2-5.85A4.37,4.37,0,0,1,1306.14,1199.46Zm-5.23-10.62a4.37,4.37,0,1,1,2-5.85A4.37,4.37,0,0,1,1300.9,1188.84Zm-5.23-10.62a4.37,4.37,0,1,1,2-5.85A4.37,4.37,0,0,1,1295.67,1178.23Zm-5.23-10.62a4.37,4.37,0,1,1,2-5.85A4.37,4.37,0,0,1,1290.44,1167.61Z"/>
      <path class="cls-1" d="M1447.43,1121.21c-7.33-8.06-26-3-41.67,11.24s-22.45,32.36-15.12,40.42,26,3,41.67-11.24S1454.76,1129.27,1447.43,1121.21Zm-21,37.61-19.07-21a2.47,2.47,0,0,1,.16-3.49h0a2.47,2.47,0,0,1,3.49.16l19.07,21a2.47,2.47,0,0,1-.16,3.49h0A2.47,2.47,0,0,1,1426.41,1158.82Z"/>
      <path class="cls-1" d="M1023.26,170.29c-7.33-8.06-26-3-41.67,11.24S959.15,213.9,966.48,222s26,3,41.67-11.24S1030.59,178.35,1023.26,170.29Zm-21,37.61-19.07-21a2.47,2.47,0,0,1,.16-3.49h0a2.47,2.47,0,0,1,3.49.16l19.07,21a2.47,2.47,0,0,1-.16,3.49h0A2.47,2.47,0,0,1,1002.25,207.9Z"/>
      <path class="cls-1" d="M1236.7,1077.59l-67.39,28.87a17.64,17.64,0,0,0,13.89,32.42l67.39-28.87a17.64,17.64,0,1,0-13.89-32.42Zm-21.37,43.21-32.84,14.07a13.67,13.67,0,0,1-10.76-25.12l32.84-14.07Z"/>
      <path class="cls-1" d="M1171.21,1118.44a3.72,3.72,0,0,0,4.88,2l17.93-7.68a3.72,3.72,0,0,0-2.93-6.83l-17.93,7.68A3.72,3.72,0,0,0,1171.21,1118.44Z"/>
      <path class="cls-1" d="M1300.62,594.37l-34.34,14.71a9,9,0,0,0,7.08,16.52l34.34-14.71a9,9,0,1,0-7.08-16.52Zm-10.89,22L1273,623.56a7,7,0,0,1-5.48-12.8l16.74-7.17Z"/>
      <path class="cls-1" d="M1267.24,615.18a1.89,1.89,0,0,0,2.49,1l9.14-3.91a1.89,1.89,0,0,0-1.49-3.48l-9.14,3.91A1.89,1.89,0,0,0,1267.24,615.18Z"/>
      <path class="cls-1" d="M1239.08,581.83l-24-28.66a9,9,0,0,0-13.79,11.53l24,28.66a9,9,0,0,0,13.79-11.53Zm-24.22-4.09-11.68-14a7,7,0,0,1,10.68-8.94l11.68,14Z"/>
      <path class="cls-1" d="M1209.54,555.86a1.89,1.89,0,0,0-.24,2.67l6.38,7.62a1.89,1.89,0,1,0,2.91-2.43l-6.38-7.62A1.89,1.89,0,0,0,1209.54,555.86Z"/>
      <path class="cls-1" d="M1242.1,1033.6h-57.48a13.83,13.83,0,0,0,0,27.66h57.48a13.83,13.83,0,1,0,0-27.66Zm-28.74,24.54h-28a10.71,10.71,0,0,1,0-21.43h28Zm25.09-3.33h-15.29a2.91,2.91,0,0,1,0-5.83h15.29a2.91,2.91,0,0,1,0,5.83Z"/>
      <path class="cls-1" d="M1129.1,540.34a17.17,17.17,0,1,0,22.58,8.94A17.17,17.17,0,0,0,1129.1,540.34Zm14.29,27.48a2.2,2.2,0,0,1-4,1.75l-10.9-25.19a2.2,2.2,0,0,1,4-1.75Z"/>
      <path class="cls-1" d="M1291,682.47a17.17,17.17,0,1,0-15.9,18.36A17.17,17.17,0,0,0,1291,682.47Zm-30.65,4.41a2.2,2.2,0,0,1-.32-4.39l27.37-2a2.2,2.2,0,0,1,.32,4.39Z"/>
      <path class="cls-1" d="M1272,972.93a16.56,16.56,0,1,0,16.56,16.56A16.56,16.56,0,0,0,1272,972.93Zm12,18.49h-10.1v10.1a1.93,1.93,0,1,1-3.86,0v-10.1h-10.1a1.93,1.93,0,1,1,0-3.86h10.1v-10.1a1.93,1.93,0,0,1,3.86,0v10.1H1284a1.93,1.93,0,1,1,0,3.86Z"/>
      <path class="cls-1" d="M1124,806.18h-15a4.52,4.52,0,0,0-.54,9v70.28a8.23,8.23,0,0,0,8.23,8.23h0a8.23,8.23,0,0,0,8.23-8.23V815.13a4.52,4.52,0,0,0-.9-8.95Zm-16.1,5.16a1.32,1.32,0,0,1-1.32-1.32h0a1.32,1.32,0,0,1,1.32-1.32h12a1.32,1.32,0,0,1,1.32,1.32h0a1.32,1.32,0,0,1-1.32,1.32Zm15.19,71.23a6.42,6.42,0,0,1-6.42,6.42h0a6.42,6.42,0,0,1-6.42-6.42V815.22h12.84Z"/>
      <path class="cls-1" d="M1113.94,875a1.32,1.32,0,0,0,1.32-1.32V827.9a1.32,1.32,0,0,0-2.63,0v45.81A1.32,1.32,0,0,0,1113.94,875Z"/>
      <path class="cls-1" d="M1218.63,907.89l-6.16-6.16h0l-6.46-6.46a5.37,5.37,0,0,0-8,7.12l-59.1,59.1a9.78,9.78,0,0,0,0,13.84h0a9.78,9.78,0,0,0,13.84,0l59.15-59.15a5.38,5.38,0,0,0,6.77-8.29Zm-17.88-9.19a1.57,1.57,0,0,1,0-2.21h0a1.57,1.57,0,0,1,2.21,0l10.09,10.09a1.57,1.57,0,0,1,0,2.21h0a1.57,1.57,0,0,1-2.21,0Zm-47.12,72.68a7.63,7.63,0,0,1-10.8,0h0a7.63,7.63,0,0,1,0-10.8l56.64-56.64,10.8,10.8Z"/>
      <path class="cls-1" d="M1152.24,957.29a1.57,1.57,0,0,0,2.21,0L1193,918.77a1.57,1.57,0,0,0-2.21-2.21l-38.53,38.53A1.57,1.57,0,0,0,1152.24,957.29Z"/>
      <path class="cls-1" d="M1134.11,1209.42c-.06-.13-.12-.26-.19-.38l3.45-1.48a3.11,3.11,0,0,0-2.45-5.72l-11.76,5-1.8-4.19,5.27-2.26a1.87,1.87,0,0,0-1.47-3.43l-14.49,6.21a1.87,1.87,0,0,0,1.47,3.43l5.27-2.26,1.8,4.19-11.76,5a3.11,3.11,0,0,0,2.45,5.72l3.45-1.48c0,.13.09.27.15.4m2.91,2a3.5,3.5,0,0,1,1.84-4.6l10.93-4.69a3.5,3.5,0,0,1,4.6,1.84"/>
      <path class="cls-1" d="M1122.24,1218.12a.83.83,0,0,0-1.53.66"/>
      <path class="cls-1" d="M1255.27,783.36a1.4,1.4,0,0,0-1.46-1.34h-18.58a1.35,1.35,0,1,0,0,2.68h18.58A1.4,1.4,0,0,0,1255.27,783.36Z"/>
      <path class="cls-1" d="M1235.23,774h18.58a1.35,1.35,0,1,0,0-2.68h-18.58a1.35,1.35,0,1,0,0,2.68Z"/>
      <path class="cls-1" d="M1235.23,763.21h18.58a1.35,1.35,0,1,0,0-2.68h-18.58a1.35,1.35,0,1,0,0,2.68Z"/>
      <path class="cls-1" d="M1235.23,752.46h18.58a1.35,1.35,0,1,0,0-2.68h-18.58a1.35,1.35,0,1,0,0,2.68Z"/>
      <path class="cls-1" d="M1235.23,741.71h18.58a1.35,1.35,0,1,0,0-2.68h-18.58a1.35,1.35,0,1,0,0,2.68Z"/>
      <path class="cls-1" d="M1281.11,846c-24.5,0-44.41-18.12-44.81-40.62a.65.65,0,0,0,0-.11h2.62a2,2,0,0,0,1.57-.73l5.77-7.14a2,2,0,0,1,1.57-.73h4.76c5.4,0,9.78-4,9.78-9V734.81c0-5-4.38-9-9.78-9h-38c-5.4,0-9.78,4-9.78,9v52.89c0,5,4.38,9,9.78,9h5.94a2,2,0,0,1,1.57.73l5.77,7.14a2,2,0,0,0,1.57.73h3.31a.63.63,0,0,0,0,.12c.41,24.28,21.89,43.84,48.33,43.84h0a.72.72,0,0,0,.75-.69v-1.85A.73.73,0,0,0,1281.11,846Zm-51.55-45.11-4.59-6.27a5.08,5.08,0,0,0-4.1-2h-5.19a6.31,6.31,0,0,1-6.55-6V736.94a6.31,6.31,0,0,1,6.55-6h35.85a6.31,6.31,0,0,1,6.55,6V786.6a6.31,6.31,0,0,1-6.55,6h-4.22a4.78,4.78,0,0,0-3.94,2l-4.32,6.25a1.33,1.33,0,0,1-1.1.56h-7.32A1.33,1.33,0,0,1,1229.56,800.92Z"/>
      <path class="cls-1" d="M1200.32,615.85l-51,28.13a18.21,18.21,0,0,0-7.16,24.74h0a18.21,18.21,0,0,0,24.74,7.16l51-28.13a18.21,18.21,0,0,0,7.16-24.74h0A18.21,18.21,0,0,0,1200.32,615.85ZM1175.08,668l-9.12,5a15.3,15.3,0,0,1-14.77-26.8l9.12-5Zm4.54-5.87a2.82,2.82,0,1,1,1.11-3.83A2.82,2.82,0,0,1,1179.62,662.15Zm-4.6-8.34a2.82,2.82,0,1,1,1.11-3.83A2.82,2.82,0,0,1,1175,653.8Zm-4.6-8.34a2.82,2.82,0,1,1,1.11-3.83A2.82,2.82,0,0,1,1170.43,645.46Zm19.12,11.21a2.82,2.82,0,1,1,1.11-3.83A2.82,2.82,0,0,1,1189.54,656.68Zm-4.6-8.34a2.82,2.82,0,1,1,1.11-3.83A2.82,2.82,0,0,1,1184.95,648.33Zm-4.6-8.34a2.82,2.82,0,1,1,1.11-3.83A2.82,2.82,0,0,1,1180.35,640Zm19.12,11.21a2.82,2.82,0,1,1,1.11-3.83A2.82,2.82,0,0,1,1199.47,651.21Zm-4.6-8.34A2.82,2.82,0,1,1,1196,639,2.82,2.82,0,0,1,1194.87,642.87Zm-4.6-8.34a2.82,2.82,0,1,1,1.11-3.83A2.82,2.82,0,0,1,1190.27,634.52Zm25.71,11-9.12,5-14.77-26.8,9.12-5a15.3,15.3,0,0,1,14.77,26.8Z"/>
      <path class="cls-1" d="M1490.76,299.49l-41.65,35.72a7.72,7.72,0,0,0-.83,10.89l55.24,64.39a7.72,7.72,0,0,0,10.89.83l41.65-35.72a7.72,7.72,0,0,0,.83-10.89l-55.24-64.39A7.72,7.72,0,0,0,1490.76,299.49Zm26,96.83a8,8,0,1,1,.86-11.22A8,8,0,0,1,1516.71,396.32Zm-14-16.37a8,8,0,1,1,.86-11.22A8,8,0,0,1,1502.67,379.95Zm-14-16.37a8,8,0,1,1,.86-11.22A8,8,0,0,1,1488.63,363.58Zm-14-16.37a8,8,0,1,1,.86-11.22A8,8,0,0,1,1474.59,347.21Zm56.1,39.37-1.57,1.35-54.71-63.78,1.57-1.35Zm10.17-11a8,8,0,1,1,.86-11.22A8,8,0,0,1,1540.86,375.6Zm-14-16.37a8,8,0,1,1,.86-11.22A8,8,0,0,1,1526.82,359.23Zm-14-16.37a8,8,0,1,1,.86-11.22A8,8,0,0,1,1512.78,342.87Zm-14-16.37a8,8,0,1,1,.86-11.22A8,8,0,0,1,1498.74,326.5Z"/>
      <path class="cls-1" d="M968.17,652.06l-27,13.31a4.24,4.24,0,0,0-1.93,5.68l20.59,41.76a4.24,4.24,0,0,0,5.68,1.93l27-13.31a4.24,4.24,0,0,0,1.93-5.68L973.85,654A4.24,4.24,0,0,0,968.17,652.06Zm.6,55a4.37,4.37,0,1,1,2-5.85A4.37,4.37,0,0,1,968.77,707.08Zm-5.23-10.62a4.37,4.37,0,1,1,2-5.85A4.37,4.37,0,0,1,963.54,696.46Zm-5.23-10.62a4.37,4.37,0,1,1,2-5.85A4.37,4.37,0,0,1,958.31,685.85Zm-5.23-10.62a4.37,4.37,0,1,1,2-5.85A4.37,4.37,0,0,1,953.07,675.23Zm24.45,28.58-1,.5-20.39-41.37,1-.5Zm6.9-4.45a4.37,4.37,0,1,1,2-5.85A4.37,4.37,0,0,1,984.43,699.36Zm-5.23-10.62a4.37,4.37,0,1,1,2-5.85A4.37,4.37,0,0,1,979.2,688.74ZM974,678.13a4.37,4.37,0,1,1,2-5.85A4.37,4.37,0,0,1,974,678.13Zm-5.23-10.62a4.37,4.37,0,1,1,2-5.85A4.37,4.37,0,0,1,968.73,667.51Z"/>
      <path class="cls-1" d="M1119.62,1045.8l-13.31-27a4.24,4.24,0,0,0-5.68-1.93l-41.76,20.59a4.24,4.24,0,0,0-1.93,5.68l13.31,27a4.24,4.24,0,0,0,5.68,1.93l41.76-20.59A4.24,4.24,0,0,0,1119.62,1045.8Zm-55,.6a4.37,4.37,0,1,1,5.85,2A4.37,4.37,0,0,1,1064.6,1046.4Zm10.62-5.23a4.37,4.37,0,1,1,5.85,2A4.37,4.37,0,0,1,1075.22,1041.17Zm10.62-5.23a4.37,4.37,0,1,1,5.85,2A4.37,4.37,0,0,1,1085.84,1035.94Zm10.62-5.23a4.37,4.37,0,1,1,5.85,2A4.37,4.37,0,0,1,1096.45,1030.7Zm-28.58,24.45-.5-1,41.37-20.39.5,1Zm4.45,6.9a4.37,4.37,0,1,1,5.85,2A4.37,4.37,0,0,1,1072.32,1062.06Zm10.62-5.23a4.37,4.37,0,1,1,5.85,2A4.37,4.37,0,0,1,1082.94,1056.83Zm10.62-5.23a4.37,4.37,0,1,1,5.85,2A4.37,4.37,0,0,1,1093.56,1051.6Zm10.62-5.23a4.37,4.37,0,1,1,5.85,2A4.37,4.37,0,0,1,1104.17,1046.36Z"/>
      <path class="cls-1" d="M901.79,1099.64h0a9.25,9.25,0,0,0-13.08-.32l-47.55,45.31a9.25,9.25,0,0,0-2.31,9.86,1.36,1.36,0,0,1-.35,1.44l-14.57,13.88a2.91,2.91,0,0,0-.1,4.12h0a2.91,2.91,0,0,0,4.12.1l14.63-13.94a1.25,1.25,0,0,1,1.36-.23,9.25,9.25,0,0,0,10-1.82l47.55-45.31A9.25,9.25,0,0,0,901.79,1099.64ZM827.36,1173a1.8,1.8,0,0,1-2.7-.23,1.85,1.85,0,0,1,.26-2.42l6.31-6,2.49,2.61Zm24.54-16.86a6.52,6.52,0,0,1-7.79.91l48.91-46.6a1.85,1.85,0,0,0,.26-2.42,1.8,1.8,0,0,0-2.7-.23l-49,46.65a6.52,6.52,0,0,1,1.28-7.74l47.28-45.05a6.52,6.52,0,0,1,9.22.22h0a6.52,6.52,0,0,1-.22,9.22Z"/>
      <path class="cls-1" d="M999,1204.26c.11-.15.2-.29.29-.45l3.81,2.75a3.89,3.89,0,0,0,4.56-6.31l-13-9.37,3.34-4.62,5.82,4.2a2.33,2.33,0,0,0,2.73-3.78l-16-11.55a2.33,2.33,0,0,0-2.73,3.78l5.82,4.2-3.34,4.62-13-9.37a3.89,3.89,0,1,0-4.56,6.31l3.81,2.75c-.12.13-.23.27-.33.42m-.28,4.41a4.38,4.38,0,0,1,6.12-1l12.05,8.71a4.38,4.38,0,0,1,1,6.12"/>
      <path class="cls-1" d="M982.07,1197.12a1,1,0,0,0-1.69-1.22"/>
      <path class="cls-1" d="M953.58,1017.14l24.24,53a18.21,18.21,0,0,0,24.14,9h0a18.21,18.21,0,0,0,9-24.14l-24.24-53a18.21,18.21,0,0,0-24.14-9h0A18.21,18.21,0,0,0,953.58,1017.14Zm50.14,29.06,4.33,9.47a15.3,15.3,0,0,1-27.83,12.73l-4.33-9.47Zm-5.52-5a2.82,2.82,0,1,1-3.74-1.39A2.82,2.82,0,0,1,998.21,1041.23Zm-8.66,4a2.82,2.82,0,1,1-3.74-1.39A2.82,2.82,0,0,1,989.55,1045.19Zm-8.66,4a2.82,2.82,0,1,1-3.74-1.39A2.82,2.82,0,0,1,980.89,1049.15Zm12.61-18.23a2.82,2.82,0,1,1-3.74-1.39A2.82,2.82,0,0,1,993.49,1030.93Zm-8.66,4a2.82,2.82,0,1,1-3.74-1.39A2.82,2.82,0,0,1,984.83,1034.89Zm-8.66,4a2.82,2.82,0,1,1-3.74-1.39A2.82,2.82,0,0,1,976.17,1038.85Zm12.61-18.23a2.82,2.82,0,1,1-3.74-1.39A2.82,2.82,0,0,1,988.78,1020.62Zm-8.66,4a2.82,2.82,0,1,1-3.74-1.39A2.82,2.82,0,0,1,980.12,1024.58Zm-8.66,4a2.82,2.82,0,1,1-3.74-1.39A2.82,2.82,0,0,1,971.46,1028.54Zm12.84-24.82,4.33,9.47-27.83,12.73-4.33-9.47a15.3,15.3,0,0,1,27.83-12.73Z"/>
      <path class="cls-1" d="M1125.72,621.11c-7.33-8.06-26-3-41.67,11.24s-22.45,32.36-15.12,40.42,26,3,41.67-11.24S1133.05,629.17,1125.72,621.11Zm-21,37.61-19.07-21a2.47,2.47,0,0,1,.16-3.49h0a2.47,2.47,0,0,1,3.49.16l19.07,21a2.47,2.47,0,0,1-.16,3.49h0A2.47,2.47,0,0,1,1104.71,658.72Z"/>
      <path class="cls-1" d="M915,577.49l-67.39,28.87a17.64,17.64,0,0,0,13.89,32.42l67.39-28.87A17.64,17.64,0,0,0,915,577.49ZM893.63,620.7l-32.84,14.07A13.67,13.67,0,0,1,850,609.65l32.84-14.07Z"/>
      <path class="cls-1" d="M849.5,618.34a3.72,3.72,0,0,0,4.88,2l17.93-7.68a3.72,3.72,0,0,0-2.93-6.83l-17.93,7.68A3.72,3.72,0,0,0,849.5,618.34Z"/>
      <path class="cls-1" d="M978.92,94.27,944.58,109a9,9,0,0,0,7.08,16.52L986,110.79a9,9,0,0,0-7.08-16.52Zm-10.89,22-16.74,7.17a7,7,0,0,1-5.48-12.8l16.74-7.17Z"/>
      <path class="cls-1" d="M945.54,115.08a1.89,1.89,0,0,0,2.49,1l9.14-3.91a1.89,1.89,0,1,0-1.49-3.48l-9.14,3.91A1.89,1.89,0,0,0,945.54,115.08Z"/>
      <path class="cls-1" d="M917.38,81.73l-24-28.66a9,9,0,0,0-13.79,11.53l24,28.66a9,9,0,0,0,13.79-11.53Zm-24.22-4.09-11.68-14a7,7,0,0,1,10.68-8.94l11.68,14Z"/>
      <path class="cls-1" d="M887.83,55.76a1.89,1.89,0,0,0-.24,2.67L894,66a1.89,1.89,0,1,0,2.91-2.43L890.5,56A1.89,1.89,0,0,0,887.83,55.76Z"/>
      <path class="cls-1" d="M920.39,533.5H862.91a13.83,13.83,0,0,0,0,27.66h57.48a13.83,13.83,0,1,0,0-27.66ZM891.65,558h-28a10.71,10.71,0,0,1,0-21.43h28Zm25.09-3.33H901.45a2.91,2.91,0,1,1,0-5.83h15.29a2.91,2.91,0,1,1,0,5.83Z"/>
      <path class="cls-2" d="M807.39,40.24A17.17,17.17,0,1,0,830,49.18,17.17,17.17,0,0,0,807.39,40.24Zm14.29,27.48a2.2,2.2,0,1,1-4,1.75l-10.9-25.19a2.2,2.2,0,1,1,4-1.75Z"/>
      <path class="cls-1" d="M969.32,182.37a17.17,17.17,0,1,0-15.9,18.36A17.17,17.17,0,0,0,969.32,182.37Zm-30.65,4.41a2.2,2.2,0,1,1-.32-4.39l27.37-2a2.2,2.2,0,0,1,.32,4.39Z"/>
      <path class="cls-1" d="M950.28,472.83a16.56,16.56,0,1,0,16.56,16.56A16.56,16.56,0,0,0,950.28,472.83Zm12,18.49h-10.1v10.1a1.93,1.93,0,0,1-3.86,0v-10.1h-10.1a1.93,1.93,0,0,1,0-3.86h10.1v-10.1a1.93,1.93,0,1,1,3.86,0v10.1h10.1a1.93,1.93,0,0,1,0,3.86Z"/>
      <path class="cls-1" d="M936.86,918.68l26.41-102.92a3.66,3.66,0,0,0-1.31-3.7l-5.86-4.85a3.73,3.73,0,0,1-1.4-3.18,3.45,3.45,0,0,0-.21-1.52l3.46,1.25c.94.34,2.11-.48,2.6-1.84l1.94-5.35c.49-1.36.13-2.74-.82-3.08l-18.26-6.61c-.94-.34-2.11.48-2.6,1.84l-1.94,5.35c-.49,1.36-.13,2.74.82,3.08l3.46,1.25a3.45,3.45,0,0,0-1.14,1A3.73,3.73,0,0,1,938.9,801l-7.61,0a3.66,3.66,0,0,0-3.38,2l-45.57,96q-.07.14-.12.29L880.13,905a3.8,3.8,0,0,0,2.51,4.73l23.54,8.52,23.54,8.52a3.8,3.8,0,0,0,5-2l2.09-5.79Q936.82,918.84,936.86,918.68Zm-6.49-112.23,28.78,10.41a.85.85,0,1,1-.57,1.59L929.8,808a.85.85,0,1,1,.57-1.59Zm9.36,59.07c-5.38,14.87-15.47,24.86-22.54,22.3s-8.43-16.69-3-31.56,15.47-24.86,22.54-22.3S945.12,850.65,939.74,865.52Zm-8.87,53.24-44-15.91a1.21,1.21,0,1,1,.82-2.27l44,15.91a1.21,1.21,0,1,1-.82,2.27Z"/>
      <path class="cls-1" d="M802.33,306.08h-15a4.52,4.52,0,0,0-.54,9v70.28a8.23,8.23,0,0,0,8.23,8.23h0a8.23,8.23,0,0,0,8.23-8.23V315a4.52,4.52,0,0,0-.9-8.95Zm-16.1,5.16a1.32,1.32,0,0,1-1.32-1.32h0a1.32,1.32,0,0,1,1.32-1.32h12a1.32,1.32,0,0,1,1.32,1.32h0a1.32,1.32,0,0,1-1.32,1.32Zm15.19,71.23a6.42,6.42,0,0,1-6.42,6.42h0a6.42,6.42,0,0,1-6.42-6.42V315.12h12.84Z"/>
      <path class="cls-1" d="M792.24,374.93a1.32,1.32,0,0,0,1.32-1.32V327.8a1.32,1.32,0,0,0-2.63,0v45.81A1.32,1.32,0,0,0,792.24,374.93Z"/>
      <path class="cls-1" d="M896.92,407.79l-6.16-6.16h0l-6.46-6.46a5.37,5.37,0,0,0-8,7.12l-59.1,59.1a9.78,9.78,0,0,0,0,13.84h0a9.78,9.78,0,0,0,13.84,0l59.15-59.15a5.38,5.38,0,0,0,6.77-8.29ZM879,398.6a1.57,1.57,0,0,1,0-2.21h0a1.57,1.57,0,0,1,2.21,0l10.09,10.09a1.57,1.57,0,0,1,0,2.21h0a1.57,1.57,0,0,1-2.21,0Zm-47.12,72.68a7.63,7.63,0,0,1-10.8,0h0a7.63,7.63,0,0,1,0-10.8l56.64-56.64,10.8,10.8Z"/>
      <path class="cls-1" d="M830.54,457.19a1.57,1.57,0,0,0,2.21,0l38.53-38.53a1.57,1.57,0,0,0-2.21-2.21L830.54,455A1.57,1.57,0,0,0,830.54,457.19Z"/>
      <path class="cls-1" d="M1244.78,122.14l-6.16-6.16h0l-6.46-6.46a5.37,5.37,0,0,0-8,7.12l-59.1,59.1a9.78,9.78,0,0,0,0,13.84h0a9.78,9.78,0,0,0,13.84,0L1238,130.43a5.38,5.38,0,0,0,6.77-8.29Zm-17.88-9.19a1.57,1.57,0,0,1,0-2.21h0a1.57,1.57,0,0,1,2.21,0l10.09,10.09a1.57,1.57,0,0,1,0,2.21h0a1.57,1.57,0,0,1-2.21,0Zm-47.12,72.68a7.63,7.63,0,0,1-10.8,0h0a7.63,7.63,0,0,1,0-10.8l56.64-56.64,10.8,10.8Z"/>
      <path class="cls-1" d="M1178.4,171.54a1.57,1.57,0,0,0,2.21,0L1219.14,133a1.57,1.57,0,0,0-2.21-2.21l-38.53,38.53A1.57,1.57,0,0,0,1178.4,171.54Z"/>
      <path class="cls-1" d="M1004.64,789.77c-8,7.35-3,26,11.34,41.64s32.41,22.38,40.45,15,3-26-11.34-41.64S1012.68,782.42,1004.64,789.77Zm37.66,20.93-20.92,19.12a2.47,2.47,0,0,1-3.49-.16h0a2.47,2.47,0,0,1,.16-3.49L1039,807.06a2.47,2.47,0,0,1,3.49.16h0A2.47,2.47,0,0,1,1042.29,810.7Z"/>
      <path class="cls-1" d="M813.22,701.74l-11.76,5-1.8-4.19,5.27-2.26a1.87,1.87,0,0,0-1.47-3.43L789,703.11a1.87,1.87,0,0,0,1.47,3.43l5.27-2.26,1.8,4.19-11.76,5a3.11,3.11,0,1,0,2.45,5.72l3.45-1.48c0,.13.09.27.15.4l18.09,42.19a4.29,4.29,0,0,0,5.63,2.25l4.38-1.88,1.39,3.24a.88.88,0,0,0,1.15.46l.18-.08,7.6,17.72a1.07,1.07,0,0,0,2-.84l-7.6-17.72.18-.08a.88.88,0,0,0,.46-1.15L823.86,759l4.38-1.88a4.29,4.29,0,0,0,2.25-5.63L812.4,709.32c-.06-.13-.12-.26-.19-.38l3.45-1.48a3.11,3.11,0,0,0-2.45-5.72Zm15.33,49.35a3.5,3.5,0,0,1-1.84,4.6l-10.93,4.69a3.5,3.5,0,0,1-4.6-1.84l-16.46-38.38a3.5,3.5,0,0,1,1.84-4.6l10.93-4.69a3.5,3.5,0,0,1,4.6,1.84Z"/>
      <path class="cls-1" d="M799.44,717.58a.83.83,0,0,0-.44,1.09l16.4,38.25a.83.83,0,1,0,1.53-.66L800.53,718A.83.83,0,0,0,799.44,717.58Z"/>
      <path class="cls-1" d="M1087.74,924.84l-51.32-27.63a18.21,18.21,0,0,0-24.67,7.4h0a18.21,18.21,0,0,0,7.4,24.67l51.32,27.63a18.21,18.21,0,0,0,24.67-7.4h0A18.21,18.21,0,0,0,1087.74,924.84Zm-57.52,7.1-9.17-4.94a15.3,15.3,0,0,1,14.5-26.94l9.17,4.94Zm7.4.63a2.82,2.82,0,1,1,3.82-1.15A2.82,2.82,0,0,1,1037.62,932.56Zm4.51-8.39A2.82,2.82,0,1,1,1046,923,2.82,2.82,0,0,1,1042.14,924.17Zm4.51-8.39a2.82,2.82,0,1,1,3.82-1.15A2.82,2.82,0,0,1,1046.65,915.79Zm.95,22.14a2.82,2.82,0,1,1,3.82-1.15A2.82,2.82,0,0,1,1047.6,937.93Zm4.51-8.39a2.82,2.82,0,1,1,3.82-1.15A2.82,2.82,0,0,1,1052.11,929.55Zm4.51-8.39a2.82,2.82,0,1,1,3.82-1.15A2.82,2.82,0,0,1,1056.63,921.16Zm.95,22.14a2.82,2.82,0,1,1,3.82-1.15A2.82,2.82,0,0,1,1057.58,943.3Zm4.51-8.39a2.82,2.82,0,1,1,3.82-1.15A2.82,2.82,0,0,1,1062.09,934.92Zm4.51-8.39a2.82,2.82,0,1,1,3.82-1.15A2.82,2.82,0,0,1,1066.61,926.53Zm4.74,27.54-9.17-4.94,14.5-26.94,9.17,4.94a15.3,15.3,0,0,1-14.5,26.94Z"/>
      <path class="cls-1" d="M878.61,115.75l-51,28.13a18.21,18.21,0,0,0-7.16,24.74h0a18.21,18.21,0,0,0,24.74,7.16l51-28.13a18.21,18.21,0,0,0,7.16-24.74h0A18.21,18.21,0,0,0,878.61,115.75Zm-25.24,52.17-9.12,5a15.3,15.3,0,0,1-14.77-26.8l9.12-5Zm4.54-5.87a2.82,2.82,0,1,1,1.11-3.83A2.82,2.82,0,0,1,857.91,162Zm-4.6-8.34a2.82,2.82,0,1,1,1.11-3.83A2.82,2.82,0,0,1,853.32,153.7Zm-4.6-8.34a2.82,2.82,0,1,1,1.11-3.83A2.82,2.82,0,0,1,848.72,145.36Zm19.12,11.21a2.82,2.82,0,1,1,1.11-3.83A2.82,2.82,0,0,1,867.84,156.58Zm-4.6-8.34a2.82,2.82,0,1,1,1.11-3.83A2.82,2.82,0,0,1,863.24,148.23Zm-4.6-8.34a2.82,2.82,0,1,1,1.11-3.83A2.82,2.82,0,0,1,858.65,139.89Zm19.12,11.21a2.82,2.82,0,1,1,1.11-3.83A2.82,2.82,0,0,1,877.76,151.11Zm-4.6-8.34a2.82,2.82,0,1,1,1.11-3.83A2.82,2.82,0,0,1,873.17,142.77Zm-4.6-8.34a2.82,2.82,0,1,1,1.11-3.83A2.82,2.82,0,0,1,868.57,134.42Zm25.71,11-9.12,5-14.77-26.8,9.12-5a15.3,15.3,0,0,1,14.77,26.8Z"/>
      <path class="cls-1" d="M1299.56,393.92a23.57,23.57,0,0,1-8.65-1.25,14.24,14.24,0,0,1-3.62-2.55,1.52,1.52,0,0,0,.1-1.33,1.55,1.55,0,0,0-2-.84l-.11,0a8.23,8.23,0,0,1-1.23-1.87l-.08-.2,2.55-1.06a1.48,1.48,0,0,0,.61-2L1282,370.53a1.48,1.48,0,0,0-1.83-1l-22.43,9.3a1.48,1.48,0,0,0-.61,2l5.13,12.37a1.48,1.48,0,0,0,1.83,1l2.55-1.06.08.2a8.23,8.23,0,0,1,.45,2.2l-.11,0a1.55,1.55,0,0,0-.84,2,1.52,1.52,0,0,0,1,.87,14.24,14.24,0,0,1-.76,4.36,23.57,23.57,0,0,1-5.23,7c-3.56,2.9-6.26,6.62-4.5,10.86l17.68,42.67c1.76,4.24,6.79,6.62,10.86,4.5,4.64-2.41,13.3-8.45,18.13-10.46s15.22-3.85,20.21-5.43c4.38-1.38,6.26-6.62,4.5-10.86l-17.68-42.67C1308.66,394.18,1304.12,393.45,1299.56,393.92Zm-39-9.95-1.34-3.23a.67.67,0,0,1,.28-.9l20.09-8.33a.67.67,0,0,1,.84.44l1.34,3.23a.68.68,0,0,1-.28.9l-20.09,8.33A.68.68,0,0,1,1260.55,384Zm9.13,9.69-.62-1.56,12.45-5.16.66,1.54a5.62,5.62,0,0,0,.35.65l-12.62,5.23A5.63,5.63,0,0,0,1269.67,393.66Zm54.86,46c1.59,3.84-.11,8.59-4.07,9.84-4.52,1.43-13.93,3.11-18.31,4.92s-12.22,7.28-16.42,9.47c-3.69,1.92-8.25-.23-9.84-4.07l-16-38.65c-1.59-3.84.84-7.23,4.07-9.84,2.48-2,4.74-6.13,5.71-8.48a14.07,14.07,0,0,0,.61-5.28l14.2-5.89a14.07,14.07,0,0,0,4.17,3.3c2.35,1,6.86,2.29,10,2,4.14-.44,8.25.23,9.84,4.07Z"/>
      <path class="cls-1" d="M1308.12,422.27a2.32,2.32,0,0,1-1.25,3l-9.57,4,4,9.57a2.32,2.32,0,0,1-1.25,3l-2.09.87a2.32,2.32,0,0,1-3-1.25l-4-9.57-9.57,4a2.32,2.32,0,0,1-3-1.25l-.87-2.09a2.32,2.32,0,0,1,1.25-3l9.57-4-4-9.57a2.32,2.32,0,0,1,1.25-3l2.09-.87a2.32,2.32,0,0,1,3,1.25l4,9.57,9.57-4a2.32,2.32,0,0,1,3,1.25Z"/>
      <path class="cls-1" d="M640.62,831.2l-27,13.31a4.24,4.24,0,0,0-1.93,5.68l20.59,41.76a4.24,4.24,0,0,0,5.68,1.93l27-13.31a4.24,4.24,0,0,0,1.93-5.68L646.3,833.12A4.24,4.24,0,0,0,640.62,831.2Zm.6,55a4.37,4.37,0,1,1,2-5.85A4.37,4.37,0,0,1,641.22,886.21ZM636,875.6a4.37,4.37,0,1,1,2-5.85A4.37,4.37,0,0,1,636,875.6ZM630.76,865a4.37,4.37,0,1,1,2-5.85A4.37,4.37,0,0,1,630.76,865Zm-5.23-10.62a4.37,4.37,0,1,1,2-5.85A4.37,4.37,0,0,1,625.52,854.36ZM650,882.94l-1,.5-20.39-41.37,1-.5Zm6.9-4.45a4.37,4.37,0,1,1,2-5.85A4.37,4.37,0,0,1,656.88,878.49Zm-5.23-10.62a4.37,4.37,0,1,1,2-5.85A4.37,4.37,0,0,1,651.65,867.88Zm-5.23-10.62a4.37,4.37,0,1,1,2-5.85A4.37,4.37,0,0,1,646.42,857.26Zm-5.23-10.62a4.37,4.37,0,1,1,2-5.85A4.37,4.37,0,0,1,641.18,846.64Z"/>
      <path class="cls-1" d="M778.76,1197.93a4.24,4.24,0,0,0-5.68-1.93l-41.76,20.59a4.24,4.24,0,0,0-1.93,5.68m9.65-2.57a4.37,4.37,0,0,1,5.85,2m2.79-1.37a4.37,4.37,0,1,1,5.85,2A4.37,4.37,0,0,1,747.67,1220.3Zm10.62-5.23a4.37,4.37,0,1,1,5.85,2A4.37,4.37,0,0,1,758.29,1215.07Zm10.62-5.23a4.37,4.37,0,1,1,5.85,2A4.37,4.37,0,0,1,768.9,1209.84Zm12.28,3,.5,1m-3.08,5.75a4.37,4.37,0,0,1,5.85,2"/>
      <path class="cls-1" d="M726.17,491.59l-15.32,3.5a14.55,14.55,0,0,0-27.76,6.35l-16.65,3.81a5.07,5.07,0,0,0-3.81,6.07l9.78,42.76a5.07,5.07,0,0,0,6.07,3.81l59.73-13.66a5.07,5.07,0,0,0,3.81-6.07l-9.78-42.76A5.07,5.07,0,0,0,726.17,491.59Zm-31-1.24a11.15,11.15,0,0,1,12.27,5.53l-20.91,4.78A11.15,11.15,0,0,1,695.16,490.34Zm24.66,34.39-13.73,3.14,3.14,13.73a3,3,0,0,1-2.24,3.56h0a3,3,0,0,1-3.56-2.24l-3.14-13.73-13.73,3.14a3,3,0,0,1-1.33-5.8L699,523.41l-3.14-13.73a3,3,0,0,1,2.24-3.56h0a3,3,0,0,1,3.56,2.24l3.14,13.73,13.73-3.14a3,3,0,1,1,1.33,5.8Z"/>
      <path class="cls-1" d="M957.57,278.07l-15.32,3.5a14.55,14.55,0,0,0-27.76,6.35l-16.65,3.81A5.07,5.07,0,0,0,894,297.8l9.78,42.76a5.07,5.07,0,0,0,6.07,3.81l59.73-13.66a5.07,5.07,0,0,0,3.81-6.07l-9.78-42.76A5.07,5.07,0,0,0,957.57,278.07Zm-31-1.24a11.15,11.15,0,0,1,12.27,5.53l-20.91,4.78A11.15,11.15,0,0,1,926.56,276.83Zm24.66,34.39-13.73,3.14,3.14,13.73a3,3,0,0,1-2.24,3.56h0a3,3,0,0,1-3.56-2.24l-3.14-13.73L918,318.82a3,3,0,0,1-1.33-5.8l13.73-3.14-3.14-13.73a3,3,0,0,1,2.24-3.56h0a3,3,0,0,1,3.56,2.24l3.14,13.73,13.73-3.14a3,3,0,0,1,1.33,5.8Z"/>
      <path class="cls-1" d="M1544.27,871.1l-13-9.37,3.34-4.62,5.82,4.2a2.33,2.33,0,0,0,2.73-3.78l-16-11.55a2.33,2.33,0,0,0-2.73,3.78l5.82,4.2-3.34,4.62-13-9.37a3.89,3.89,0,0,0-4.56,6.31l3.81,2.75c-.12.13-.23.27-.33.42l-33.62,46.51a5.36,5.36,0,0,0,1.2,7.48l4.83,3.49-2.58,3.57a1.1,1.1,0,0,0,.25,1.53l.2.14L1469.07,941a1.34,1.34,0,1,0,2.17,1.57L1485.37,923l.2.14a1.1,1.1,0,0,0,1.53-.25l2.58-3.57,4.83,3.49a5.36,5.36,0,0,0,7.48-1.2l33.62-46.51c.11-.15.2-.29.29-.45l3.81,2.75a3.89,3.89,0,0,0,4.56-6.31Zm-43.07,48.16a4.38,4.38,0,0,1-6.12,1L1483,911.53a4.38,4.38,0,0,1-1-6.12l30.59-42.32a4.38,4.38,0,0,1,6.12-1l12.05,8.71a4.38,4.38,0,0,1,1,6.12Z"/>
      <path class="cls-1" d="M1518.43,866.5a1,1,0,0,0-1.45.23l-30.48,42.17a1,1,0,1,0,1.69,1.22L1518.67,868A1,1,0,0,0,1518.43,866.5Z"/>
      <path class="cls-1" d="M659.16,1181.12a18.21,18.21,0,0,0-24.14-9h0a18.21,18.21,0,0,0-9,24.14m44.63,24.09a2.82,2.82,0,1,1-3.74-1.39A2.82,2.82,0,0,1,670.66,1220.36Zm-12.4,2.57,7.69-12.87a2.82,2.82,0,1,1-3.74-1.39A2.82,2.82,0,0,1,665.94,1210.06Zm-8.66,4a2.82,2.82,0,1,1-3.74-1.39A2.82,2.82,0,0,1,657.28,1214Zm-8.66,4a2.82,2.82,0,1,1-3.74-1.39A2.82,2.82,0,0,1,648.62,1218Zm12.61-18.23a2.82,2.82,0,1,1-3.74-1.39A2.82,2.82,0,0,1,661.23,1199.75Zm-8.66,4a2.82,2.82,0,1,1-3.74-1.39A2.82,2.82,0,0,1,652.57,1203.72Zm-8.66,4a2.82,2.82,0,1,1-3.74-1.39A2.82,2.82,0,0,1,643.91,1207.68Zm12.84-24.82,4.33,9.47-27.83,12.73-4.33-9.47a15.3,15.3,0,0,1,27.83-12.73Z"/>
      <path class="cls-1" d="M798.17,800.25c-7.33-8.06-26-3-41.67,11.24s-22.45,32.36-15.12,40.42,26,3,41.67-11.24S805.5,808.3,798.17,800.25Zm-21,37.61-19.07-21a2.47,2.47,0,0,1,.16-3.49h0a2.47,2.47,0,0,1,3.49.16l19.07,21a2.47,2.47,0,0,1-.16,3.49h0A2.47,2.47,0,0,1,777.16,837.86Z"/>
      <path class="cls-1" d="M587.45,756.63,520.06,785.5A17.64,17.64,0,0,0,534,817.92L601.34,789a17.64,17.64,0,1,0-13.89-32.42Zm-21.37,43.21L533.24,813.9a13.67,13.67,0,0,1-10.76-25.12l32.84-14.07Z"/>
      <path class="cls-1" d="M522,797.48a3.72,3.72,0,0,0,4.88,2l17.93-7.68a3.72,3.72,0,0,0-2.93-6.83L523.9,792.6A3.72,3.72,0,0,0,522,797.48Z"/>
      <path class="cls-1" d="M651.37,273.4,617,288.11a9,9,0,0,0,7.08,16.52l34.34-14.71a9,9,0,1,0-7.08-16.52Zm-10.89,22-16.74,7.17a7,7,0,0,1-5.48-12.8L635,282.62Z"/>
      <path class="cls-1" d="M618,294.22a1.89,1.89,0,0,0,2.49,1l9.14-3.91a1.89,1.89,0,0,0-1.49-3.48L619,291.73A1.89,1.89,0,0,0,618,294.22Z"/>
      <path class="cls-1" d="M589.83,260.87l-24-28.66a9,9,0,0,0-13.79,11.53l24,28.66a9,9,0,1,0,13.79-11.53Zm-24.22-4.09-11.68-14a7,7,0,0,1,10.68-8.94l11.68,14Z"/>
      <path class="cls-1" d="M560.29,234.89a1.89,1.89,0,0,0-.24,2.67l6.38,7.62a1.89,1.89,0,0,0,2.91-2.43L563,235.13A1.89,1.89,0,0,0,560.29,234.89Z"/>
      <path class="cls-1" d="M592.84,712.64H535.36a13.83,13.83,0,0,0,0,27.66h57.48a13.83,13.83,0,0,0,0-27.66ZM564.1,737.18h-28a10.71,10.71,0,0,1,0-21.43h28Zm25.09-3.33H573.9a2.91,2.91,0,1,1,0-5.83h15.29a2.91,2.91,0,0,1,0,5.83Z"/>
      <path class="cls-1" d="M479.84,219.37a17.17,17.17,0,1,0,22.58,8.94A17.17,17.17,0,0,0,479.84,219.37Zm14.29,27.48a2.2,2.2,0,1,1-4,1.75l-10.9-25.19a2.2,2.2,0,0,1,4-1.75Z"/>
      <path class="cls-1" d="M641.77,361.51a17.17,17.17,0,1,0-15.9,18.36A17.17,17.17,0,0,0,641.77,361.51Zm-30.65,4.41a2.2,2.2,0,0,1-.32-4.39l27.37-2a2.2,2.2,0,0,1,.32,4.39Z"/>
      <path class="cls-1" d="M622.73,652a16.56,16.56,0,1,0,16.56,16.56A16.56,16.56,0,0,0,622.73,652Zm12,18.49h-10.1v10.1a1.93,1.93,0,0,1-3.86,0v-10.1h-10.1a1.93,1.93,0,0,1,0-3.86h10.1v-10.1a1.93,1.93,0,0,1,3.86,0v10.1h10.1a1.93,1.93,0,0,1,0,3.86Z"/>
      <path class="cls-1" d="M567.52,1153l30.14-50.32a2,2,0,0,0-.11-2.16l-2.34-3.49a2.06,2.06,0,0,1-.24-1.91,1.91,1.91,0,0,0,.13-.84l1.64,1.21c.45.33,1.19.07,1.67-.57l1.87-2.53c.47-.64.5-1.43.05-1.76l-8.62-6.36c-.45-.33-1.19-.07-1.67.57l-1.87,2.53c-.47.64-.5,1.43-.05,1.76l1.64,1.21a1.91,1.91,0,0,0-.77.37,2.06,2.06,0,0,1-1.89.33l-4-1.21a2,2,0,0,0-2.1.53L541.77,1134l-.11.13-2,2.73a2.1,2.1,0,0,0,.59,2.9l11.12,8.21,11.12,8.21a2.1,2.1,0,0,0,2.94-.3l2-2.73Zm14.2-60.41,13.59,10a.47.47,0,1,1-.55.75l-13.59-10a.47.47,0,1,1,.55-.75Zm-4.32,32.73c-5.19,7-12.09,10.72-15.43,8.26s-1.84-10.15,3.35-17.18,12.09-10.72,15.43-8.26S582.58,1118.29,577.4,1125.32Zm-13.06,26.78-20.76-15.32a.67.67,0,1,1,.79-1.07L565.13,1151a.67.67,0,1,1-.79,1.07Z"/>
      <path class="cls-1" d="M474.78,485.21h-15a4.52,4.52,0,0,0-.54,9V564.5a8.23,8.23,0,0,0,8.23,8.23h0a8.23,8.23,0,0,0,8.23-8.23V494.16a4.52,4.52,0,0,0-.9-8.95Zm-16.1,5.16a1.32,1.32,0,0,1-1.32-1.32h0a1.32,1.32,0,0,1,1.32-1.32h12a1.32,1.32,0,0,1,1.32,1.32h0a1.32,1.32,0,0,1-1.32,1.32Zm15.19,71.23a6.42,6.42,0,0,1-6.42,6.42h0a6.42,6.42,0,0,1-6.42-6.42V494.26h12.84Z"/>
      <path class="cls-1" d="M464.69,554.06a1.32,1.32,0,0,0,1.32-1.32V506.93a1.32,1.32,0,0,0-2.63,0v45.81A1.32,1.32,0,0,0,464.69,554.06Z"/>
      <path class="cls-1" d="M569.37,586.92l-6.16-6.16h0l-6.46-6.46a5.37,5.37,0,0,0-8,7.12l-59.1,59.1a9.78,9.78,0,0,0,0,13.84h0a9.78,9.78,0,0,0,13.84,0l59.15-59.15a5.38,5.38,0,0,0,6.77-8.29Zm-17.88-9.19a1.57,1.57,0,0,1,0-2.21h0a1.57,1.57,0,0,1,2.21,0l10.09,10.09a1.57,1.57,0,0,1,0,2.21h0a1.57,1.57,0,0,1-2.21,0ZM504.37,650.4a7.63,7.63,0,0,1-10.8,0h0a7.63,7.63,0,0,1,0-10.8L550.22,583l10.8,10.8Z"/>
      <path class="cls-1" d="M503,636.33a1.57,1.57,0,0,0,2.21,0l38.53-38.53a1.57,1.57,0,0,0-2.21-2.21L503,634.11A1.57,1.57,0,0,0,503,636.33Z"/>
      <path class="cls-1" d="M818,221.25l-6.16-6.16h0l-6.46-6.46a5.37,5.37,0,0,0-8,7.12l-59.1,59.1a9.78,9.78,0,0,0,0,13.84h0a9.78,9.78,0,0,0,13.84,0l59.15-59.15a5.38,5.38,0,0,0,6.77-8.29Zm-17.88-9.19a1.57,1.57,0,0,1,0-2.21h0a1.57,1.57,0,0,1,2.21,0l10.09,10.09a1.57,1.57,0,0,1,0,2.21h0a1.57,1.57,0,0,1-2.21,0ZM753,284.73a7.63,7.63,0,0,1-10.8,0h0a7.63,7.63,0,0,1,0-10.8l56.64-56.64,10.8,10.8Z"/>
      <path class="cls-1" d="M751.66,270.65a1.57,1.57,0,0,0,2.21,0l38.53-38.53a1.57,1.57,0,0,0-2.21-2.21l-38.53,38.53A1.57,1.57,0,0,0,751.66,270.65Z"/>
      <path class="cls-1" d="M677.09,968.9c-8,7.35-3,26,11.34,41.64s32.41,22.38,40.45,15,3-26-11.34-41.64S685.13,961.55,677.09,968.9Zm37.66,20.93L693.82,1009a2.47,2.47,0,0,1-3.49-.16h0a2.47,2.47,0,0,1,.16-3.49l20.92-19.12a2.47,2.47,0,0,1,3.49.16h0A2.47,2.47,0,0,1,714.74,989.84Z"/>
      <path class="cls-1" d="M485.67,880.87l-11.76,5-1.8-4.19,5.27-2.26a1.87,1.87,0,0,0-1.47-3.43l-14.49,6.21a1.87,1.87,0,0,0,1.47,3.43l5.27-2.26,1.8,4.19-11.76,5a3.11,3.11,0,1,0,2.45,5.72l3.45-1.48c0,.13.09.27.15.4l18.09,42.19a4.29,4.29,0,0,0,5.63,2.25l4.38-1.88,1.39,3.24a.88.88,0,0,0,1.15.46l.18-.08,7.6,17.72a1.07,1.07,0,1,0,2-.84l-7.6-17.72.18-.08a.88.88,0,0,0,.46-1.15l-1.39-3.24,4.38-1.88a4.29,4.29,0,0,0,2.25-5.63l-18.09-42.19c-.06-.13-.12-.26-.19-.38l3.45-1.48a3.11,3.11,0,0,0-2.45-5.72ZM501,930.22a3.5,3.5,0,0,1-1.84,4.6l-10.93,4.69a3.5,3.5,0,0,1-4.6-1.84l-16.46-38.38a3.5,3.5,0,0,1,1.84-4.6L479.94,890a3.5,3.5,0,0,1,4.6,1.84Z"/>
      <path class="cls-1" d="M471.89,896.71a.83.83,0,0,0-.44,1.09l16.4,38.25a.83.83,0,1,0,1.53-.66L473,897.15A.83.83,0,0,0,471.89,896.71Z"/>
      <path class="cls-1" d="M606,462.4a1.4,1.4,0,0,0-1.46-1.34H586a1.35,1.35,0,1,0,0,2.68h18.58A1.4,1.4,0,0,0,606,462.4Z"/>
      <path class="cls-1" d="M586,453h18.58a1.35,1.35,0,1,0,0-2.68H586a1.35,1.35,0,1,0,0,2.68Z"/>
      <path class="cls-1" d="M586,442.24h18.58a1.35,1.35,0,1,0,0-2.68H586a1.35,1.35,0,1,0,0,2.68Z"/>
      <path class="cls-1" d="M586,431.49h18.58a1.35,1.35,0,1,0,0-2.68H586a1.35,1.35,0,1,0,0,2.68Z"/>
      <path class="cls-1" d="M586,420.74h18.58a1.35,1.35,0,1,0,0-2.68H586a1.35,1.35,0,1,0,0,2.68Z"/>
      <path class="cls-1" d="M631.85,525.06c-24.5,0-44.41-18.12-44.81-40.62a.65.65,0,0,0,0-.11h2.62a2,2,0,0,0,1.57-.73l5.77-7.14a2,2,0,0,1,1.57-.73h4.76c5.4,0,9.78-4,9.78-9V413.84c0-5-4.38-9-9.78-9h-38c-5.4,0-9.78,4-9.78,9v52.89c0,5,4.38,9,9.78,9h5.94a2,2,0,0,1,1.57.73l5.77,7.14a2,2,0,0,0,1.57.73h3.31a.63.63,0,0,0,0,.12c.41,24.28,21.89,43.84,48.33,43.84h0a.72.72,0,0,0,.75-.69v-1.85A.73.73,0,0,0,631.85,525.06ZM580.31,480l-4.59-6.27a5.08,5.08,0,0,0-4.1-2h-5.19a6.31,6.31,0,0,1-6.55-6V416a6.31,6.31,0,0,1,6.55-6h35.85a6.31,6.31,0,0,1,6.55,6v49.66a6.31,6.31,0,0,1-6.55,6h-4.22a4.78,4.78,0,0,0-3.94,2l-4.32,6.25a1.33,1.33,0,0,1-1.1.56h-7.32A1.33,1.33,0,0,1,580.31,480Z"/>
      <path class="cls-1" d="M760.2,1104l-51.32-27.63a18.21,18.21,0,0,0-24.67,7.4h0a18.21,18.21,0,0,0,7.4,24.67L742.93,1136a18.21,18.21,0,0,0,24.67-7.4h0A18.21,18.21,0,0,0,760.2,1104Zm-57.52,7.1-9.17-4.94a15.3,15.3,0,0,1,14.5-26.94l9.17,4.94Zm7.4.63a2.82,2.82,0,1,1,3.82-1.15A2.82,2.82,0,0,1,710.07,1111.7Zm4.51-8.39a2.82,2.82,0,1,1,3.82-1.15A2.82,2.82,0,0,1,714.59,1103.31Zm4.51-8.39a2.82,2.82,0,1,1,3.82-1.15A2.82,2.82,0,0,1,719.1,1094.92Zm.95,22.14a2.82,2.82,0,1,1,3.82-1.15A2.82,2.82,0,0,1,720,1117.07Zm4.51-8.39a2.82,2.82,0,1,1,3.82-1.15A2.82,2.82,0,0,1,724.56,1108.68Zm4.51-8.39a2.82,2.82,0,1,1,3.82-1.15A2.82,2.82,0,0,1,729.08,1100.29Zm.95,22.14a2.82,2.82,0,1,1,3.82-1.15A2.82,2.82,0,0,1,730,1122.44Zm4.51-8.39a2.82,2.82,0,1,1,3.82-1.15A2.82,2.82,0,0,1,734.54,1114.05Zm4.51-8.39a2.82,2.82,0,1,1,3.82-1.15A2.82,2.82,0,0,1,739.06,1105.66Zm4.74,27.54-9.17-4.94,14.5-26.94,9.17,4.94a15.3,15.3,0,0,1-14.5,26.94Z"/>
      <path class="cls-1" d="M551.06,294.88,500,323a18.21,18.21,0,0,0-7.16,24.74h0a18.21,18.21,0,0,0,24.74,7.16l51-28.13A18.21,18.21,0,0,0,575.81,302h0A18.21,18.21,0,0,0,551.06,294.88Zm-25.24,52.17-9.12,5a15.3,15.3,0,0,1-14.77-26.8l9.12-5Zm4.54-5.87a2.82,2.82,0,1,1,1.11-3.83A2.82,2.82,0,0,1,530.36,341.18Zm-4.6-8.34a2.82,2.82,0,1,1,1.11-3.83A2.82,2.82,0,0,1,525.77,332.84Zm-4.6-8.34a2.82,2.82,0,1,1,1.11-3.83A2.82,2.82,0,0,1,521.17,324.5Zm19.12,11.21a2.82,2.82,0,1,1,1.11-3.83A2.82,2.82,0,0,1,540.29,335.71Zm-4.6-8.34a2.82,2.82,0,1,1,1.11-3.83A2.82,2.82,0,0,1,535.69,327.37ZM531.1,319a2.82,2.82,0,1,1,1.11-3.83A2.82,2.82,0,0,1,531.1,319Zm19.12,11.21a2.82,2.82,0,1,1,1.11-3.83A2.82,2.82,0,0,1,550.21,330.24Zm-4.6-8.34a2.82,2.82,0,1,1,1.11-3.83A2.82,2.82,0,0,1,545.62,321.9Zm-4.6-8.34a2.82,2.82,0,1,1,1.11-3.83A2.82,2.82,0,0,1,541,313.56Zm25.71,11-9.12,5-14.77-26.8,9.12-5a15.3,15.3,0,0,1,14.77,26.8Z"/>
      <path class="cls-1" d="M379.47,613.24l-27,13.31a4.24,4.24,0,0,0-1.93,5.68L371.12,674a4.24,4.24,0,0,0,5.68,1.93l27-13.31a4.24,4.24,0,0,0,1.93-5.68l-20.59-41.76A4.24,4.24,0,0,0,379.47,613.24Zm.6,55a4.37,4.37,0,1,1,2-5.85A4.37,4.37,0,0,1,380.07,668.25Zm-5.23-10.62a4.37,4.37,0,1,1,2-5.85A4.37,4.37,0,0,1,374.84,657.64ZM369.61,647a4.37,4.37,0,1,1,2-5.85A4.37,4.37,0,0,1,369.61,647Zm-5.23-10.62a4.37,4.37,0,1,1,2-5.85A4.37,4.37,0,0,1,364.37,636.41ZM388.83,665l-1,.5-20.39-41.37,1-.5Zm6.9-4.45a4.37,4.37,0,1,1,2-5.85A4.37,4.37,0,0,1,395.73,660.54Zm-5.23-10.62a4.37,4.37,0,1,1,2-5.85A4.37,4.37,0,0,1,390.5,649.92Zm-5.23-10.62a4.37,4.37,0,1,1,2-5.85A4.37,4.37,0,0,1,385.27,639.3ZM380,628.69a4.37,4.37,0,1,1,2-5.85A4.37,4.37,0,0,1,380,628.69Z"/>
      <path class="cls-1" d="M530.92,1007l-13.31-27a4.24,4.24,0,0,0-5.68-1.93l-41.76,20.59a4.24,4.24,0,0,0-1.93,5.68l13.31,27a4.24,4.24,0,0,0,5.68,1.93L529,1012.66A4.24,4.24,0,0,0,530.92,1007Zm-55,.6a4.37,4.37,0,1,1,5.85,2A4.37,4.37,0,0,1,475.91,1007.58Zm10.62-5.23a4.37,4.37,0,1,1,5.85,2A4.37,4.37,0,0,1,486.52,1002.35Zm10.62-5.23a4.37,4.37,0,1,1,5.85,2A4.37,4.37,0,0,1,497.14,997.11Zm10.62-5.23a4.37,4.37,0,1,1,5.85,2A4.37,4.37,0,0,1,507.75,991.88Zm-28.58,24.45-.5-1L520,994.92l.5,1Zm4.45,6.9a4.37,4.37,0,1,1,5.85,2A4.37,4.37,0,0,1,483.63,1023.24Zm10.62-5.23a4.37,4.37,0,1,1,5.85,2A4.37,4.37,0,0,1,494.24,1018Zm10.62-5.23a4.37,4.37,0,1,1,5.85,2A4.37,4.37,0,0,1,504.86,1012.77Zm10.62-5.23a4.37,4.37,0,1,1,5.85,2A4.37,4.37,0,0,1,515.47,1007.54Z"/>
      <path class="cls-1" d="M282.07,1020.42h0a9.25,9.25,0,0,0-1.23,13L322.73,1084a9.25,9.25,0,0,0,9.67,3,1.36,1.36,0,0,1,1.41.45l12.83,15.5a2.91,2.91,0,0,0,4.1.39h0a2.91,2.91,0,0,0,.39-4.1l-12.89-15.57a1.25,1.25,0,0,1-.14-1.37,9.25,9.25,0,0,0-1.12-10.09l-41.89-50.59A9.25,9.25,0,0,0,282.07,1020.42Zm68,79.35a1.8,1.8,0,0,1-.42,2.67,1.85,1.85,0,0,1-2.4-.43l-5.56-6.71,2.78-2.3ZM335,1074.11a6.52,6.52,0,0,1,.36,7.84l-43.08-52a1.85,1.85,0,0,0-2.4-.43,1.8,1.8,0,0,0-.42,2.67l43.13,52.08a6.52,6.52,0,0,1-7.63-1.82l-41.65-50.3a6.52,6.52,0,0,1,.86-9.18h0a6.52,6.52,0,0,1,9.18.86Z"/>
      <path class="cls-1" d="M489.9,1143.45l-13-9.37,3.34-4.62,5.82,4.2a2.33,2.33,0,0,0,2.73-3.78l-16-11.55a2.33,2.33,0,0,0-2.73,3.78l5.82,4.2-3.34,4.62-13-9.37a3.89,3.89,0,1,0-4.56,6.31l3.81,2.75c-.12.13-.23.27-.33.42l-33.62,46.51a5.36,5.36,0,0,0,1.2,7.48l4.83,3.49-2.58,3.57a1.1,1.1,0,0,0,.25,1.53l.2.14-14.12,19.54a1.34,1.34,0,0,0,2.17,1.57L431,1195.34l.2.14a1.1,1.1,0,0,0,1.53-.25l2.58-3.57,4.83,3.49a5.36,5.36,0,0,0,7.48-1.2l33.62-46.51c.11-.15.2-.29.29-.45l3.81,2.75a3.89,3.89,0,0,0,4.56-6.31Zm-43.07,48.16a4.38,4.38,0,0,1-6.12,1l-12.05-8.71a4.38,4.38,0,0,1-1-6.12l30.59-42.32a4.38,4.38,0,0,1,6.12-1l12.05,8.71a4.38,4.38,0,0,1,1,6.12Z"/>
      <path class="cls-1" d="M464.06,1138.85a1,1,0,0,0-1.45.23l-30.48,42.17a1,1,0,1,0,1.69,1.22l30.48-42.17A1,1,0,0,0,464.06,1138.85Z"/>
      <path class="cls-1" d="M318.5,1209.9h0a18.21,18.21,0,0,0-24.14-9m-41.79,22.32,7.42-.15,12.65.42a2.82,2.82,0,1,1,1.39-3.74A2.82,2.82,0,0,1,272.64,1223.5Zm11.92-1.19a2.82,2.82,0,0,1,3.74,1.39m-5.35-4.92a2.82,2.82,0,1,1,1.39-3.74A2.82,2.82,0,0,1,282.95,1218.79Zm2.62-10.65,9.47-4.33a15.3,15.3,0,0,1,20.28,7.55"/>
      <path class="cls-1" d="M364.88,978.31l24.24,53a18.21,18.21,0,0,0,24.14,9h0a18.21,18.21,0,0,0,9-24.14l-24.24-53a18.21,18.21,0,0,0-24.14-9h0A18.21,18.21,0,0,0,364.88,978.31ZM415,1007.37l4.33,9.47a15.3,15.3,0,0,1-27.83,12.73l-4.33-9.47Zm-5.52-5a2.82,2.82,0,1,1-3.74-1.39A2.82,2.82,0,0,1,409.51,1002.41Zm-8.66,4a2.82,2.82,0,1,1-3.74-1.39A2.82,2.82,0,0,1,400.85,1006.37Zm-8.66,4a2.82,2.82,0,1,1-3.74-1.39A2.82,2.82,0,0,1,392.19,1010.33ZM404.8,992.1a2.82,2.82,0,1,1-3.74-1.39A2.82,2.82,0,0,1,404.8,992.1Zm-8.66,4a2.82,2.82,0,1,1-3.74-1.39A2.82,2.82,0,0,1,396.14,996.06Zm-8.66,4a2.82,2.82,0,1,1-3.74-1.39A2.82,2.82,0,0,1,387.47,1000Zm12.61-18.23a2.82,2.82,0,1,1-3.74-1.39A2.82,2.82,0,0,1,400.08,981.8Zm-8.66,4a2.82,2.82,0,1,1-3.74-1.39A2.82,2.82,0,0,1,391.42,985.76Zm-8.66,4a2.82,2.82,0,1,1-3.74-1.39A2.82,2.82,0,0,1,382.76,989.72ZM395.6,964.9l4.33,9.47L372.11,987.1l-4.33-9.47A15.3,15.3,0,0,1,395.6,964.9Z"/>
      <path class="cls-1" d="M551.75,520.56c-7.33-8.06-26-3-41.67,11.24S487.64,564.17,495,572.22s26,3,41.67-11.24S559.08,528.62,551.75,520.56Zm-21,37.61-19.07-21a2.47,2.47,0,0,1,.16-3.49h0a2.47,2.47,0,0,1,3.49.16l19.07,21a2.47,2.47,0,0,1-.16,3.49h0A2.47,2.47,0,0,1,530.74,558.17Z"/>
      <path class="cls-1" d="M326.3,538.67l-67.39,28.87A17.64,17.64,0,0,0,272.8,600l67.39-28.87a17.64,17.64,0,0,0-13.89-32.42Zm-21.37,43.21L272.1,595.94a13.67,13.67,0,0,1-10.76-25.12l32.84-14.07Z"/>
      <path class="cls-1" d="M260.8,579.52a3.72,3.72,0,0,0,4.88,2l17.93-7.68a3.72,3.72,0,1,0-2.93-6.83l-17.93,7.68A3.72,3.72,0,0,0,260.8,579.52Z"/>
      <path class="cls-1" d="M390.22,55.44,355.88,70.16A9,9,0,0,0,363,86.68L397.3,72a9,9,0,0,0-7.08-16.52Zm-10.89,22L362.6,84.63a7,7,0,0,1-5.48-12.8l16.74-7.17Z"/>
      <path class="cls-1" d="M356.84,76.26a1.89,1.89,0,0,0,2.49,1l9.14-3.91A1.89,1.89,0,0,0,367,69.86l-9.14,3.91A1.89,1.89,0,0,0,356.84,76.26Z"/>
      <g class="cls-3">
        <path class="cls-1" d="M328.68,42.91l-24-28.66a9,9,0,0,0-13.79,11.53l24,28.66a9,9,0,0,0,13.79-11.53Zm-24.22-4.09-11.68-14a7,7,0,0,1,10.68-8.94l11.68,14Z"/>
        <path class="cls-1" d="M299.14,16.93a1.89,1.89,0,0,0-.24,2.67l6.38,7.62a1.89,1.89,0,1,0,2.91-2.43l-6.38-7.62A1.89,1.89,0,0,0,299.14,16.93Z"/>
      </g>
      <path class="cls-1" d="M331.7,494.68H274.21a13.83,13.83,0,0,0,0,27.66H331.7a13.83,13.83,0,1,0,0-27.66ZM303,519.22h-28a10.71,10.71,0,0,1,0-21.43h28ZM328,515.9H312.75a2.91,2.91,0,0,1,0-5.83H328a2.91,2.91,0,0,1,0,5.83Z"/>
      <path class="cls-2" d="M218.69,1.42a17.17,17.17,0,1,0,22.58,8.94A17.17,17.17,0,0,0,218.69,1.42ZM233,28.89a2.2,2.2,0,1,1-4,1.75L218,5.46a2.2,2.2,0,0,1,4-1.75Z"/>
      <path class="cls-1" d="M380.62,143.55a17.17,17.17,0,1,0-15.9,18.36A17.17,17.17,0,0,0,380.62,143.55ZM350,148a2.2,2.2,0,1,1-.32-4.39l27.37-2a2.2,2.2,0,1,1,.32,4.39Z"/>
      <path class="cls-1" d="M361.58,434a16.56,16.56,0,1,0,16.56,16.56A16.56,16.56,0,0,0,361.58,434Zm12,18.49h-10.1v10.1a1.93,1.93,0,0,1-3.86,0v-10.1h-10.1a1.93,1.93,0,0,1,0-3.86h10.1v-10.1a1.93,1.93,0,0,1,3.86,0v10.1h10.1a1.93,1.93,0,0,1,0,3.86Z"/>
      <path class="cls-1" d="M399,843.8l-72.49-77.68a3.66,3.66,0,0,0-3.82-.89l-7.24,2.32A3.73,3.73,0,0,1,312,767a3.45,3.45,0,0,0-1.4-.64l2.92-2.24c.8-.61.73-2-.15-3.18l-3.47-4.52c-.88-1.15-2.24-1.58-3-1l-15.4,11.82c-.8.61-.73,2,.15,3.18L295.1,775c.88,1.15,2.24,1.58,3,1l2.92-2.24a3.45,3.45,0,0,0,.26,1.52,3.73,3.73,0,0,1-.37,3.46l-4.11,6.4a3.66,3.66,0,0,0-.13,3.92L353,879.11l.18.26,3.75,4.88a3.8,3.8,0,0,0,5.34.43l19.86-15.25L402,854.19a3.8,3.8,0,0,0,1-5.27L399.21,844Zm-98.05-55,24.27-18.64a.85.85,0,1,1,1,1.34L302,790.16a.85.85,0,1,1-1-1.34Zm54.81,23.93c9.63,12.55,12.61,26.42,6.65,31s-18.6-1.89-28.23-14.43-12.61-26.42-6.65-31S346.14,800.2,355.77,812.75Zm40.08,36.15-37.08,28.47a1.21,1.21,0,1,1-1.47-1.91L394.38,847a1.21,1.21,0,1,1,1.47,1.91Z"/>
      <path class="cls-1" d="M213.64,267.26h-15a4.52,4.52,0,0,0-.54,9v70.28a8.23,8.23,0,0,0,8.23,8.23h0a8.23,8.23,0,0,0,8.23-8.23V276.21a4.52,4.52,0,0,0-.9-8.95Zm-16.1,5.16a1.32,1.32,0,0,1-1.32-1.32h0a1.32,1.32,0,0,1,1.32-1.32h12a1.32,1.32,0,0,1,1.32,1.32h0a1.32,1.32,0,0,1-1.32,1.32Zm15.19,71.23a6.42,6.42,0,0,1-6.42,6.42h0a6.42,6.42,0,0,1-6.42-6.42V276.3h12.84Z"/>
      <path class="cls-1" d="M203.54,336.1a1.32,1.32,0,0,0,1.32-1.32V289a1.32,1.32,0,0,0-2.63,0v45.81A1.32,1.32,0,0,0,203.54,336.1Z"/>
      <path class="cls-1" d="M308.23,369l-6.16-6.16h0l-6.46-6.46a5.37,5.37,0,0,0-8,7.12l-59.1,59.1a9.78,9.78,0,0,0,0,13.84h0a9.78,9.78,0,0,0,13.84,0l59.15-59.15a5.38,5.38,0,0,0,6.77-8.29Zm-17.88-9.19a1.57,1.57,0,0,1,0-2.21h0a1.57,1.57,0,0,1,2.21,0l10.09,10.09a1.57,1.57,0,0,1,0,2.21h0a1.57,1.57,0,0,1-2.21,0Zm-47.12,72.68a7.63,7.63,0,0,1-10.8,0h0a7.63,7.63,0,0,1,0-10.8L289.07,365l10.8,10.8Z"/>
      <path class="cls-1" d="M241.84,418.37a1.57,1.57,0,0,0,2.21,0l38.53-38.53a1.57,1.57,0,0,0-2.21-2.21l-38.53,38.53A1.57,1.57,0,0,0,241.84,418.37Z"/>
      <path class="cls-1" d="M415.94,750.95c-8,7.35-3,26,11.34,41.64s32.41,22.38,40.45,15,3-26-11.34-41.64S424,743.6,415.94,750.95Zm37.66,20.93L432.67,791a2.47,2.47,0,0,1-3.49-.16h0a2.47,2.47,0,0,1,.16-3.49l20.92-19.12a2.47,2.47,0,0,1,3.49.16h0A2.47,2.47,0,0,1,453.59,771.88Z"/>
      <path class="cls-1" d="M224.52,662.92l-11.76,5-1.8-4.19,5.27-2.26a1.87,1.87,0,0,0-1.47-3.43l-14.49,6.21a1.87,1.87,0,0,0,1.47,3.43l5.27-2.26,1.8,4.19-11.76,5a3.11,3.11,0,0,0,2.45,5.72l3.45-1.48c0,.13.09.27.15.4l18.09,42.19a4.29,4.29,0,0,0,5.63,2.25l4.38-1.88,1.39,3.24a.88.88,0,0,0,1.15.46l.18-.08,7.6,17.72a1.07,1.07,0,1,0,2-.84l-7.6-17.72.18-.08a.88.88,0,0,0,.46-1.15l-1.39-3.24,4.38-1.88a4.29,4.29,0,0,0,2.25-5.63L223.7,670.5c-.06-.13-.12-.26-.19-.38l3.45-1.48a3.11,3.11,0,0,0-2.45-5.72Zm15.33,49.35a3.5,3.5,0,0,1-1.84,4.6l-10.93,4.69a3.5,3.5,0,0,1-4.6-1.84L206,681.33a3.5,3.5,0,0,1,1.84-4.6L218.79,672a3.5,3.5,0,0,1,4.6,1.84Z"/>
      <path class="cls-1" d="M210.74,678.76a.83.83,0,0,0-.44,1.09l16.4,38.25a.83.83,0,1,0,1.53-.66l-16.4-38.25A.83.83,0,0,0,210.74,678.76Z"/>
      <path class="cls-1" d="M344.87,244.44a1.4,1.4,0,0,0-1.46-1.34H324.83a1.35,1.35,0,1,0,0,2.68h18.58A1.4,1.4,0,0,0,344.87,244.44Z"/>
      <path class="cls-1" d="M324.83,235h18.58a1.35,1.35,0,1,0,0-2.68H324.83a1.35,1.35,0,1,0,0,2.68Z"/>
      <path class="cls-1" d="M324.83,224.29h18.58a1.35,1.35,0,1,0,0-2.68H324.83a1.35,1.35,0,1,0,0,2.68Z"/>
      <path class="cls-1" d="M324.83,213.54h18.58a1.35,1.35,0,1,0,0-2.68H324.83a1.35,1.35,0,1,0,0,2.68Z"/>
      <path class="cls-1" d="M324.83,202.79h18.58a1.35,1.35,0,1,0,0-2.68H324.83a1.35,1.35,0,1,0,0,2.68Z"/>
      <path class="cls-1" d="M370.71,307.1c-24.5,0-44.41-18.12-44.81-40.62a.65.65,0,0,0,0-.11h2.62a2,2,0,0,0,1.57-.73l5.77-7.14a2,2,0,0,1,1.57-.73h4.76c5.4,0,9.78-4,9.78-9V195.88c0-5-4.38-9-9.78-9h-38c-5.4,0-9.78,4-9.78,9v52.89c0,5,4.38,9,9.78,9h5.94a2,2,0,0,1,1.57.73l5.77,7.14a2,2,0,0,0,1.57.73h3.31a.63.63,0,0,0,0,.12c.41,24.28,21.89,43.84,48.33,43.84h0a.72.72,0,0,0,.75-.69V307.8A.73.73,0,0,0,370.71,307.1ZM319.16,262l-4.59-6.27a5.08,5.08,0,0,0-4.1-2h-5.19a6.31,6.31,0,0,1-6.55-6V198a6.31,6.31,0,0,1,6.55-6h35.85a6.31,6.31,0,0,1,6.55,6v49.66a6.31,6.31,0,0,1-6.55,6H336.9a4.78,4.78,0,0,0-3.94,2L328.65,262a1.33,1.33,0,0,1-1.1.56h-7.32A1.33,1.33,0,0,1,319.16,262Z"/>
      <path class="cls-1" d="M499,886l-51.32-27.63a18.21,18.21,0,0,0-24.67,7.4h0a18.21,18.21,0,0,0,7.4,24.67l51.32,27.63a18.21,18.21,0,0,0,24.67-7.4h0A18.21,18.21,0,0,0,499,886Zm-57.52,7.1-9.17-4.94a15.3,15.3,0,0,1,14.5-26.94l9.17,4.94Zm7.4.63a2.82,2.82,0,1,1,3.82-1.15A2.82,2.82,0,0,1,448.92,893.74Zm4.51-8.39a2.82,2.82,0,1,1,3.82-1.15A2.82,2.82,0,0,1,453.44,885.35ZM458,877a2.82,2.82,0,1,1,3.82-1.15A2.82,2.82,0,0,1,458,877Zm.95,22.14a2.82,2.82,0,1,1,3.82-1.15A2.82,2.82,0,0,1,458.9,899.11Zm4.51-8.39a2.82,2.82,0,1,1,3.82-1.15A2.82,2.82,0,0,1,463.42,890.72Zm4.51-8.39a2.82,2.82,0,1,1,3.82-1.15A2.82,2.82,0,0,1,467.93,882.34Zm.95,22.14a2.82,2.82,0,1,1,3.82-1.15A2.82,2.82,0,0,1,468.88,904.48Zm4.51-8.39a2.82,2.82,0,1,1,3.82-1.15A2.82,2.82,0,0,1,473.39,896.09Zm4.51-8.39a2.82,2.82,0,1,1,3.82-1.15A2.82,2.82,0,0,1,477.91,887.71Zm4.74,27.54-9.17-4.94L488,883.36l9.17,4.94a15.3,15.3,0,0,1-14.5,26.94Z"/>
      <path class="cls-1" d="M289.92,76.92l-51,28.13a18.21,18.21,0,0,0-7.16,24.74h0A18.21,18.21,0,0,0,256.45,137l51-28.13a18.21,18.21,0,0,0,7.16-24.74h0A18.21,18.21,0,0,0,289.92,76.92Zm-25.24,52.17-9.12,5a15.3,15.3,0,0,1-14.77-26.8l9.12-5Zm4.54-5.87a2.82,2.82,0,1,1,1.11-3.83A2.82,2.82,0,0,1,269.22,123.22Zm-4.6-8.34a2.82,2.82,0,1,1,1.11-3.83A2.82,2.82,0,0,1,264.62,114.88Zm-4.6-8.34a2.82,2.82,0,1,1,1.11-3.83A2.82,2.82,0,0,1,260,106.54Zm19.12,11.21a2.82,2.82,0,1,1,1.11-3.83A2.82,2.82,0,0,1,279.14,117.75Zm-4.6-8.34a2.82,2.82,0,1,1,1.11-3.83A2.82,2.82,0,0,1,274.54,109.41Zm-4.6-8.34a2.82,2.82,0,1,1,1.11-3.83A2.82,2.82,0,0,1,269.95,101.07Zm19.12,11.21a2.82,2.82,0,1,1,1.11-3.83A2.82,2.82,0,0,1,289.06,112.28Zm-4.6-8.34a2.82,2.82,0,1,1,1.11-3.83A2.82,2.82,0,0,1,284.47,103.94Zm-4.6-8.34A2.82,2.82,0,1,1,281,91.77,2.82,2.82,0,0,1,279.87,95.6Zm25.71,11-9.12,5-14.77-26.8,9.12-5a15.3,15.3,0,0,1,14.77,26.8Z"/>
    </g>
  </defs>
  <use xlink:href="#backgroundGradient" />
  <use xlink:href="#Medicals" fill="url(#Gradient2)" />
</svg>
